<svg width="638" height="494" viewBox="0 0 638 494" fill="none" xmlns="http://www.w3.org/2000/svg">
<path d="M303.118 481.308C326.997 473.772 347.5 458.205 390.051 446.825C417.143 439.593 533.935 484.391 609.518 369.714C617.45 357.687 623.715 344.251 627.701 331.273C692.016 122.054 435.49 -48.6483 207.114 15.5981C146.176 32.7634 -7.95894 105.726 6.11623 288.683C15.8387 414.968 142.841 531.966 303.118 481.308Z" fill="white"/>
<mask id="mask0_2_538" style="mask-type:alpha" maskUnits="userSpaceOnUse" x="2" y="0" width="633" height="492">
<path d="M300.118 479.437C323.997 471.901 344.5 456.334 387.051 444.954C414.143 437.722 530.935 482.519 606.518 367.843C614.45 355.816 620.715 342.38 624.701 329.402C689.016 120.182 432.49 -50.5195 204.114 13.7268C143.176 30.8922 -10.9589 103.854 3.11623 286.812C12.8387 413.097 139.841 530.095 300.118 479.437Z" fill="white"/>
</mask>
<g mask="url(#mask0_2_538)">
<path d="M550.617 144.211H481.582C478.82 144.211 476.582 146.45 476.582 149.211V278.929C476.582 281.69 478.82 283.929 481.582 283.929H550.617C553.379 283.929 555.617 281.69 555.617 278.929V149.211C555.617 146.45 553.379 144.211 550.617 144.211Z" fill="#DEF4DE"/>
<path d="M550.617 -1.37683H481.582C478.82 -1.37683 476.582 0.861742 476.582 3.62317V133.341C476.582 136.102 478.82 138.341 481.582 138.341H550.617C553.379 138.341 555.617 136.102 555.617 133.341V3.62317C555.617 0.861746 553.379 -1.37683 550.617 -1.37683Z" fill="#DEF4DE"/>
<path d="M465.308 144.211H396.272C393.511 144.211 391.272 146.45 391.272 149.211V278.929C391.272 281.69 393.511 283.929 396.272 283.929H465.308C468.069 283.929 470.308 281.69 470.308 278.929V149.211C470.308 146.45 468.069 144.211 465.308 144.211Z" fill="#DEF4DE"/>
<path d="M465.308 -1.37683H396.272C393.511 -1.37683 391.272 0.861742 391.272 3.62317V133.341C391.272 136.102 393.511 138.341 396.272 138.341H465.308C468.069 138.341 470.308 136.102 470.308 133.341V3.62317C470.308 0.861746 468.069 -1.37683 465.308 -1.37683Z" fill="#DEF4DE"/>
<path d="M379.998 144.211H310.962C308.201 144.211 305.962 146.45 305.962 149.211V278.929C305.962 281.69 308.201 283.929 310.962 283.929H379.998C382.759 283.929 384.998 281.69 384.998 278.929V149.211C384.998 146.45 382.759 144.211 379.998 144.211Z" fill="#DEF4DE"/>
<path d="M379.998 -1.37683H310.962C308.201 -1.37683 305.962 0.861742 305.962 3.62317V133.341C305.962 136.102 308.201 138.341 310.962 138.341H379.998C382.759 138.341 384.998 136.102 384.998 133.341V3.62317C384.998 0.861746 382.759 -1.37683 379.998 -1.37683Z" fill="#DEF4DE"/>
</g>
<path d="M274.846 231.516C274.032 229.385 274.317 228.89 274.846 226.949C275.985 222.838 284.772 221.011 289.206 212.981C292.054 207.88 301.695 209.517 307.39 204.607C311.458 201.106 306.495 199.355 316.624 193.684C332.042 185.044 329.723 175.91 329.113 175.681C328.096 175.301 328.258 178.041 327.079 179.449C321.587 185.996 285.179 174.197 254.425 193.494C241.041 201.867 231.766 213.475 229.285 227.976C227.495 238.595 231.237 243.962 235.265 242.972C240.024 241.792 236.526 244.799 239.536 248.758C251.943 265.276 277.938 239.433 274.846 231.516Z" fill="#7CA417"/>
<path d="M115.667 259.49C130.677 273.002 141.824 262.421 151.424 251.612C153.743 249.024 160.414 258.272 168.55 248.491C181.283 233.076 164.686 211.648 147.315 163.235C145.2 157.298 125.714 114.479 113.958 96.0581C108.181 86.9997 101.754 80.7197 96.2623 78.0935C82.3092 71.3568 72.5461 75.6195 71.5291 70.0627C70.7969 65.9902 74.2953 65.0768 72.1393 64.2014C69.4138 63.0976 62.8237 80.1488 64.1661 97.1238C65.2238 110.445 70.3087 115.393 75.7598 130.122C81.0888 144.509 79.9905 149.876 83.611 173.359C90.4452 217.89 93.8622 239.889 115.667 259.49Z" fill="#346E00"/>
<path d="M183.724 417.328C184.944 405.529 186.246 393.73 187.914 381.932C189.581 370.133 191.534 358.41 194.016 346.726C196.497 335.079 199.467 323.47 203.087 312.09C206.708 300.672 211.06 289.482 216.267 278.597C221.474 267.75 227.576 257.245 234.817 247.425C242.058 237.644 250.438 228.547 259.957 220.669C269.476 212.79 280.175 206.13 291.687 201.106C293.152 200.497 294.576 199.888 296.04 199.279L300.393 197.528C303.281 196.348 306.169 195.13 308.976 193.76C311.783 192.39 314.509 190.905 317.072 189.193C319.634 187.48 322.034 185.501 323.987 183.141C322.075 185.501 319.716 187.518 317.194 189.307C314.631 191.058 311.905 192.618 309.139 194.026C306.332 195.435 303.485 196.691 300.596 197.947L296.284 199.773C294.86 200.382 293.437 201.029 292.013 201.677C280.663 206.853 270.168 213.628 260.852 221.582C251.537 229.537 243.401 238.633 236.404 248.453C229.407 258.273 223.549 268.739 218.586 279.587C213.623 290.434 209.515 301.586 206.097 312.966C202.68 324.308 199.914 335.84 197.677 347.449C195.399 359.057 193.649 370.742 192.185 382.503C190.721 394.225 189.622 406.024 188.605 417.823L183.724 417.328Z" fill="#346E00"/>
<path d="M106.798 120.493C98.0929 133.13 84.4652 135.908 84.2212 135.527C83.9364 135.033 96.3437 130.656 103.137 118.019C97.2793 114.48 90.4045 112.12 82.3499 111.511C67.0137 110.369 72.6275 107.02 60.0168 103.062C43.4601 97.8473 36.6666 97.4667 33.0462 98.5324C27.1883 100.283 26.9849 95.6017 26.0493 96.4771C25.4391 97.048 20.4355 108.162 28.4494 115.85C32.68 119.884 37.7243 118.21 43.4602 124.147C46.5111 127.306 46.267 129.438 48.4637 133.51C53.2233 142.34 64.6136 140.932 66.2001 148.658C75.5971 194.369 93.008 197.186 108.71 197.414C117.375 197.528 115.992 190.563 121.402 191.514C135.518 194.026 135.64 142.036 106.798 120.493Z" fill="#9FBC50"/>
<path d="M183.805 86.505C196.456 95.7157 210.328 94.1171 210.409 93.6985C210.531 93.1656 197.27 92.8611 186.368 83.0415C190.639 77.9033 196.294 73.5263 203.657 70.4815C217.691 64.6582 211.223 63.25 221.759 55.5998C235.549 45.5518 241.814 43.0779 245.597 43.0017C251.74 42.8495 250.276 38.3583 251.496 38.8912C252.269 39.2337 260.893 48.178 256.093 57.8834C253.53 63.0216 248.16 62.9836 244.865 70.3673C243.116 74.2876 244.092 76.2286 243.441 80.7579C242.058 90.5394 230.831 92.747 232.051 100.511C239.333 146.527 223.915 154.595 209.189 159.658C201.053 162.436 199.873 155.433 195.114 158.021C182.666 164.796 164.197 115.774 183.805 86.505Z" fill="#346E00"/>
<path d="M185.961 54.9148C170.625 43.6108 163.791 32.6112 153.987 31.5075C148.576 30.8985 149.146 33.0299 143.98 29.338C141.58 27.6253 139.668 24.9991 138.976 25.3797C138.325 25.7603 140.074 28.044 139.749 30.7843C139.261 35.0471 134.135 36.3412 130.881 40.1472C128.481 43.0018 127.993 46.2369 127.993 49.5863C137.43 53.4685 153.865 52.0602 151.627 52.9737C149.309 53.9252 136.576 56.3611 128.196 56.0566C128.277 69.6062 122.135 73.3742 118.189 89.1693C115.178 101.235 116.765 107.134 117.05 123.766C117.904 174.349 104.439 185.539 116.277 205.939C117.579 208.223 133.403 225.997 147.681 226.111C156.265 226.188 158.787 219.831 170.015 219.261C180.998 218.69 184.293 224.475 195.439 225.388C195.439 225.388 202.965 226.454 217.569 217.472C254.384 194.826 225.624 84.1073 185.961 54.9148Z" fill="#7CA417"/>
<path d="M288.921 138.191C287.904 132.596 284.894 130.351 285.952 125.251C286.318 123.424 287.131 121.597 286.48 121.178C285.626 120.645 282.941 123.272 282.128 123.957C275.334 130.008 259.876 127.839 256.622 127.496C237.136 125.517 211.589 145.918 199.67 158.972C194.138 165.024 172.171 189.116 178.517 215.074C178.761 216.025 180.429 234.751 194.504 236.654C203.453 237.834 207.277 228.243 217.081 230.641C223.508 232.201 226.193 236.388 232.214 236.921C240.187 237.606 247.184 228.471 248.77 226.264C254.466 218.271 251.415 214.427 256.622 200.116C259.062 193.417 261.137 187.822 266.1 181.58C270.656 175.871 274.521 173.626 276.88 170.657C272.243 172.027 266.466 171.761 260.039 169.782C255.645 168.45 251.903 165.557 252.35 165.1C252.716 164.682 257.639 167.65 264.025 167.232C272.69 166.661 276.88 164.111 279.362 162.093C279.117 157.069 276.961 152.921 278.833 151.893C280.338 151.056 282.168 153.568 284.528 152.921C288.108 151.893 290.06 144.433 288.921 138.191Z" fill="#346E00"/>
<path d="M135.966 234.142C120.751 226.872 118.229 228.243 108.832 219.07C105.781 216.101 103.991 211.153 84.4246 203.77C79.9091 202.057 83.0415 199.24 82.3906 198.593C81.3329 197.566 76.8175 201.296 74.7021 205.863C69.8206 216.596 71.6512 225.122 75.1089 232.125C87.8417 238.976 96.2623 235.094 96.8725 236.578C97.0759 237.111 87.1094 239.547 79.2176 239.09C80.8041 241.526 82.3906 243.771 83.611 245.827C87.1094 251.802 86.7026 262.764 90.5672 273.687C106.432 266.532 119.124 268.359 119.124 268.549C119.124 268.587 117.823 268.625 116.765 268.815C103.544 271.213 97.6048 276.808 93.6995 280.538C96.9132 286.171 101.795 291.499 109.565 295.8C111.232 296.714 118.067 300.938 127.301 299.188C136.006 297.551 133.444 287.96 139.952 288.378C169.73 290.434 162.367 246.778 135.966 234.142Z" fill="#7CA417"/>
<path d="M188.402 411.01C198.206 387.641 206.382 363.662 211.345 339.037C213.827 326.744 215.454 314.298 215.901 301.776C216.105 295.534 216.023 289.292 215.616 283.05C215.169 276.808 214.396 270.604 213.176 264.476C212.85 262.954 212.566 261.432 212.199 259.871C211.833 258.311 211.508 256.75 211.182 255.19C210.572 252.069 210.003 248.91 209.637 245.713C208.823 239.356 208.538 232.962 208.823 226.568C209.108 220.174 209.921 213.818 211.386 207.576L211.955 205.254L212.565 202.932C213.013 201.41 213.42 199.888 213.908 198.327C214.844 195.282 215.901 192.237 217.122 189.269C219.522 183.293 222.451 177.546 226.03 172.103C229.61 166.699 233.8 161.637 238.641 157.184C241.041 154.938 243.645 152.883 246.33 150.98L248.404 149.61C249.096 149.153 249.828 148.734 250.52 148.277C251.943 147.44 253.408 146.603 254.872 145.842C260.771 142.721 267.076 140.323 273.585 138.648C267.117 140.475 260.893 142.987 255.116 146.222C253.652 147.021 252.269 147.897 250.845 148.772C250.154 149.229 249.462 149.648 248.77 150.142L246.777 151.551C244.133 153.492 241.651 155.623 239.292 157.869C234.614 162.36 230.587 167.46 227.21 172.865C223.834 178.269 221.068 184.016 218.871 189.954C217.772 192.923 216.796 195.929 215.942 198.936C215.535 200.459 215.128 201.981 214.722 203.503L214.152 205.787L213.664 208.071C212.403 214.198 211.752 220.44 211.63 226.682C211.549 232.924 211.955 239.166 212.891 245.332C213.338 248.415 213.949 251.498 214.64 254.543C215.006 256.065 215.372 257.588 215.739 259.148C216.145 260.67 216.511 262.269 216.837 263.829C218.22 270.071 219.196 276.428 219.806 282.784C220.417 289.14 220.661 295.534 220.579 301.928C220.457 314.678 219.115 327.429 216.918 339.989C212.484 365.147 204.796 389.696 195.48 413.56L188.402 411.01Z" fill="#7CA417"/>
<path d="M166.679 418.888C165.458 388.973 162.082 359.095 157.038 329.484C151.993 299.873 145.322 270.452 136.454 241.602C134.216 234.409 131.857 227.215 129.294 220.098C126.731 212.98 124.006 205.939 121.077 198.974C118.148 192.009 114.934 185.12 111.436 178.383C109.687 175.034 107.856 171.685 105.903 168.411C103.951 165.138 101.917 161.903 99.8015 158.744C95.4488 152.464 90.6892 146.412 85.0348 141.16C84.3025 140.513 83.611 139.866 82.8787 139.219L80.6414 137.354L78.3226 135.603C77.5497 135.032 76.6954 134.499 75.9225 133.967C75.1089 133.434 74.2547 132.939 73.4004 132.444C72.5461 131.987 71.6918 131.493 70.7969 131.112C69.0476 130.237 67.1764 129.552 65.3458 128.752C63.5152 127.953 61.6846 127.001 60.1388 125.707C58.593 124.451 57.2505 122.967 56.1115 121.407C55.542 120.645 54.9725 119.846 54.403 119.085C53.8335 118.324 53.2233 117.562 52.6131 116.839C51.352 115.393 49.9689 114.023 48.4637 112.843C46.9586 111.625 45.25 110.597 43.5008 109.76C41.7109 108.923 39.8397 108.238 37.9684 107.591C36.0971 106.944 34.1852 106.297 32.4766 105.269C31.6224 104.774 30.8088 104.203 30.0765 103.556C29.3443 102.909 28.7341 102.148 28.1239 101.387C28.7341 102.148 29.385 102.871 30.1172 103.518C30.8494 104.165 31.663 104.698 32.5173 105.193C34.2259 106.144 36.1378 106.791 38.0497 107.4C39.9617 108.009 41.8736 108.618 43.6635 109.456C45.4941 110.293 47.2027 111.321 48.7892 112.5C50.3757 113.718 51.7995 115.05 53.1012 116.497C53.7521 117.22 54.3623 117.981 54.9725 118.742C55.542 119.504 56.1522 120.303 56.7217 121.026C57.8607 122.548 59.2032 123.957 60.7083 125.137C62.2135 126.316 63.922 127.23 65.7526 127.953C67.5832 128.714 69.4544 129.399 71.285 130.237C72.2207 130.617 73.0749 131.112 73.9699 131.569C74.8648 132.064 75.7191 132.558 76.5734 133.053C77.387 133.586 78.2413 134.119 79.0548 134.69L81.4549 136.441L83.7737 138.267C84.5466 138.876 85.2788 139.561 86.0111 140.17C91.8689 145.423 96.8725 151.474 101.388 157.716C103.625 160.875 105.741 164.111 107.775 167.346C109.809 170.619 111.721 173.968 113.551 177.318C117.212 184.054 120.589 190.943 123.721 197.908C126.853 204.874 129.742 211.915 132.467 219.032C135.193 226.149 137.715 233.305 140.115 240.536C149.634 269.386 156.956 298.845 162.692 328.57C168.387 358.296 172.455 388.326 174.286 418.546L166.679 418.888Z" fill="#7CA417"/>
<path d="M183.48 406.443C176.808 377.174 172.333 347.411 169.445 317.533C166.598 287.655 165.377 257.588 166.435 227.596C166.72 220.098 167.126 212.6 167.737 205.14C168.347 197.642 169.16 190.182 170.177 182.76C171.194 175.339 172.537 167.917 174.123 160.571C174.937 156.917 175.832 153.263 176.849 149.648C177.866 146.032 179.005 142.454 180.266 138.877C182.829 131.797 185.88 124.832 189.988 118.438C190.517 117.639 191.005 116.839 191.575 116.078L193.243 113.757L195.033 111.511C195.643 110.788 196.294 110.065 196.945 109.38C197.595 108.694 198.287 108.009 198.979 107.362C199.711 106.715 200.402 106.068 201.175 105.459C202.68 104.203 204.267 103.1 205.853 101.92C207.44 100.74 208.945 99.3696 210.084 97.7711C211.264 96.1725 212.159 94.4598 212.85 92.6709C213.216 91.7955 213.542 90.8821 213.908 90.0067C214.274 89.1313 214.64 88.2559 215.088 87.4186C215.942 85.7439 216.918 84.1073 218.057 82.5849C219.237 81.0624 220.579 79.6923 222.085 78.4362C223.59 77.2183 225.258 76.1146 226.885 75.0869C228.553 74.0212 230.221 72.9555 231.604 71.5853C232.295 70.9002 232.946 70.1771 233.475 69.3778C234.004 68.5786 234.411 67.7032 234.777 66.8278C234.411 67.7032 233.963 68.5405 233.394 69.3398C232.824 70.139 232.214 70.8622 231.482 71.5092C230.058 72.8413 228.39 73.869 226.681 74.8966C225.014 75.9243 223.305 76.9519 221.759 78.2079C220.213 79.4258 218.83 80.8341 217.61 82.3184C216.389 83.8409 215.372 85.4775 214.477 87.1902C214.03 88.0275 213.623 88.9029 213.257 89.7783C212.891 90.6537 212.525 91.5291 212.159 92.4045C211.427 94.1553 210.532 95.7919 209.352 97.2763C208.213 98.7606 206.748 100.017 205.203 101.158C203.616 102.3 201.989 103.404 200.443 104.622C199.67 105.231 198.938 105.878 198.165 106.525C197.433 107.21 196.741 107.857 196.05 108.58C195.399 109.303 194.707 109.989 194.056 110.75L192.185 112.995L190.436 115.317C189.826 116.078 189.337 116.916 188.768 117.677C184.456 124.109 181.202 131.112 178.435 138.229C177.093 141.807 175.873 145.423 174.774 149.039C173.676 152.693 172.699 156.346 171.764 160.038C169.974 167.422 168.509 174.844 167.289 182.304C166.069 189.764 165.092 197.262 164.36 204.798C163.587 212.295 162.977 219.831 162.57 227.367C160.902 257.512 161.472 287.77 163.709 317.876C165.987 347.982 169.893 378.049 175.995 407.775L183.48 406.443Z" fill="#7CA417"/>
<path d="M174.611 418.279C176.076 402.332 176.767 386.27 177.093 370.171C177.418 354.071 177.459 337.971 177.256 321.872C176.889 289.634 175.75 257.435 174.164 225.198C172.577 192.999 170.543 160.799 167.859 128.638C167.167 120.607 166.475 112.576 165.662 104.546L165.011 98.5321L164.319 92.5185C164.075 90.5394 163.75 88.5602 163.221 86.6191C162.733 84.6781 161.919 82.8511 160.984 81.0623C160.536 80.1488 160.089 79.1973 159.682 78.2458C159.316 77.2943 158.95 76.3047 158.665 75.3151C158.095 73.336 157.729 71.3568 157.363 69.3396C156.672 65.3433 156.143 61.3469 155.248 57.4266C154.394 53.5064 153.173 49.5862 151.383 45.9704C149.593 42.3166 147.153 38.9292 144.264 35.9604C147.234 38.8911 149.715 42.2405 151.627 45.8943C153.499 49.5481 154.8 53.4303 155.777 57.3886C156.712 61.3469 157.363 65.3433 158.136 69.3016C158.543 71.2807 158.95 73.2599 159.56 75.1629C159.845 76.1144 160.211 77.0659 160.577 77.9794C160.984 78.8928 161.431 79.8063 161.879 80.7197C162.855 82.5086 163.709 84.4497 164.279 86.4288C164.848 88.408 165.214 90.4252 165.499 92.4424L166.313 98.456L167.086 104.47C168.062 112.5 168.916 120.531 169.77 128.562C173.066 160.685 175.71 192.884 177.947 225.084C180.144 257.283 181.934 289.558 182.951 321.834C183.439 337.971 183.764 354.147 183.724 370.323C183.683 386.499 183.317 402.675 182.137 418.926L174.611 418.279Z" fill="#346E00"/>
<path d="M163.302 419.193C162.652 400.315 160.902 381.437 157.729 362.787C154.556 344.137 150.041 325.64 143.735 307.675C140.562 298.693 136.983 289.825 132.833 281.223C128.684 272.583 124.006 264.21 118.636 256.179C113.266 248.187 107.205 240.536 100.208 233.686C98.459 231.973 96.6285 230.336 94.9199 228.585C93.2114 226.835 91.5842 225.008 90.0384 223.105C88.4925 221.202 87.0687 219.261 85.8077 217.205C85.1975 216.178 84.5873 215.112 84.1398 214.008C83.6923 212.904 83.2855 211.763 83.3262 210.545C83.3262 211.725 83.733 212.866 84.2212 213.97C84.7093 215.074 85.3195 216.102 85.9297 217.129C87.2315 219.184 88.6959 221.087 90.2824 222.952C91.8689 224.817 93.5368 226.606 95.286 228.319C97.0352 230.032 98.8658 231.63 100.696 233.343C107.856 240.08 114.121 247.654 119.694 255.608C125.267 263.563 130.148 271.936 134.501 280.576C138.854 289.178 142.637 298.046 146.014 307.028C152.726 324.993 157.689 343.567 161.268 362.292C164.848 381.056 167.004 400.048 168.062 419.079L163.302 419.193Z" fill="#346E00"/>
<path d="M244.865 280.614C238.804 284.573 218.912 295.953 197.148 304.326C173.676 313.346 151.261 320.35 143.288 318.599C139.708 317.838 134.623 316.582 132.833 313.346C129.498 307.219 139.952 296.143 146.217 291.119C149.959 288.112 153.987 285.791 161.757 281.299C166.557 278.521 170.218 276.618 171.398 276.009C179.045 272.013 191.9 262.688 207.603 253.211C217.528 247.235 224.891 242.325 238.072 235.931C248.852 230.717 253.449 229.385 258.086 230.755C266.263 233.191 271.836 243.277 271.307 251.917C270.615 263.753 258.452 271.708 244.865 280.614Z" fill="#F79556"/>
<path d="M188.036 307.447C188.198 295.915 186.815 286.019 183.724 277.189C182.829 274.639 181.893 272.279 180.917 270.148L180.673 269.615L181.201 269.272C183.032 268.092 185.025 266.798 187.1 265.428C193.039 261.546 199.792 257.093 207.236 252.64C209.148 251.498 210.938 250.394 212.688 249.329C220.091 244.799 227.047 240.537 237.746 235.322C246.533 231.059 250.967 229.575 254.669 229.575C255.93 229.575 257.15 229.765 258.371 230.108C267.239 232.772 272.609 243.581 272.121 251.993C271.388 264.21 259.306 272.089 245.313 281.223C240.106 284.611 220.213 296.257 197.433 305.011C194.585 306.115 191.778 307.143 189.053 308.132L187.995 308.513L188.036 307.447Z" fill="#F5641A"/>
<path d="M359.622 272.736C361.046 279.244 362.755 283.773 365.724 291.69C370.484 304.364 370.281 302.994 379.637 322.329C389.685 343.186 392.085 347.22 395.868 352.206C398.39 355.518 400.953 361.531 407.746 365.261C410.797 366.936 414.743 369.676 418.242 368.496C424.913 366.289 425.442 352.016 424.629 344.632C424.14 340.217 422.961 336.069 420.683 328.114C419.259 323.204 418.038 319.588 417.672 318.447C415.15 310.911 409.374 292.984 405.102 276.618C402.377 266.304 400.709 258.273 395.99 245.637C392.125 235.284 389.847 231.516 385.617 229.613C378.172 226.264 367.148 229.88 361.412 236.236C353.52 244.99 356.409 258.082 359.622 272.736Z" fill="#DD6326"/>
<path d="M329.153 113.262C306.047 111.625 288.067 126.773 256.418 154.291C242.384 166.471 232.254 171.837 226.03 181.314C220.173 190.259 208.62 213.323 214.071 238.177C219.806 264.324 244.906 288.15 272.365 290.358C319.472 294.164 354.782 232.277 361.046 218.576C373.006 192.466 377.969 152.388 353.561 121.635C346.32 112.501 333.018 113.528 329.153 113.262Z" fill="#290708"/>
<path d="M390.417 330.207C400.383 329.522 411.082 326.059 420.723 320.312C418.445 312.776 410.838 282.708 404.858 261.584C395.054 226.911 386.512 222.572 363.446 222.077C340.422 221.582 330.089 210.05 300.352 215.911C288.718 218.195 275.212 224.17 261.747 228.015C241.204 233.876 226.803 238.215 215.535 244.99C210.287 248.149 231.685 292.908 241.529 310.644C244.296 315.63 254.018 347.715 233.393 378.392C224.078 397.803 218.057 407.775 227.495 412.114C247.631 421.363 264.88 421.515 318.699 417.671C355.432 415.044 379.515 418.774 370.484 400.81C354.334 368.801 378.254 349.847 390.417 330.207Z" fill="#F5641A"/>
<path d="M329.967 197.68C331.309 201.943 326.306 226.949 325.33 229.156C322.157 236.35 312.434 243.848 302.874 243.581C289.613 243.201 284.365 233.99 284.691 225.008C285.138 212.866 285.626 201.867 283.552 177.813C282.982 171.342 327.364 189.459 329.967 197.68Z" fill="#EC7D40"/>
<path d="M311.783 184.131C306.861 182.456 306.739 180.134 300.23 182.38C295.633 183.979 292.135 188.127 289.572 193.494C291.199 200.573 295.674 208.528 300.596 213.97C303.851 217.586 308.936 223.181 317.56 224.132C320.163 224.437 323.092 224.285 325.94 223.676C327.974 215.455 331.025 200.839 330.008 197.68C327.364 189.459 316.461 185.729 311.783 184.131Z" fill="#D66730"/>
<path d="M272.283 145.461C272.039 134.347 277.856 125.974 279.972 123.005C290.06 108.923 300.922 105.269 304.949 104.394C318.943 101.349 330.943 101.577 342.049 109.456C362.348 123.843 359.134 155.547 357.67 165.329C356.246 174.768 349.859 203.199 333.018 215.302C330.13 217.396 326.469 219.717 320.407 219.527C311.946 219.261 304.095 213.475 301.247 210.621C291.443 200.763 289.125 193.532 285.463 175.491C281.802 157.069 272.527 156.575 272.283 145.461Z" fill="#F79556"/>
<path d="M314.468 202.59C314.265 202.247 314.509 201.829 314.916 201.791C316.746 201.677 321.18 201.524 326.224 201.981C329.682 202.324 332.896 203.161 334.238 203.503C334.604 203.618 334.726 203.998 334.564 204.303C333.628 205.863 330.536 209.898 324.353 209.251C318.821 208.68 315.566 204.341 314.468 202.59Z" fill="#DC2947"/>
<path d="M340.706 161.789C341.195 160.609 342.008 159.62 342.903 158.782C343.839 157.907 344.896 157.222 346.035 156.651C348.395 155.509 351.202 155.471 353.765 155.737C354.415 155.814 355.066 155.852 355.677 156.004L356.612 156.194C356.938 156.27 357.263 156.385 357.629 156.461C358.931 156.917 360.029 157.602 361.006 158.402C362.918 160 357.792 159.277 356.816 159.125L356.083 159.049L355.27 159.011C354.741 158.973 354.212 159.011 353.683 159.049C353.154 159.087 352.626 159.201 352.137 159.277C351.609 159.429 351.12 159.506 350.632 159.696C349.656 160 348.68 160.305 347.663 160.533L344.49 161.294C343.391 161.561 342.252 161.827 340.951 162.094L340.706 161.789Z" fill="#290708"/>
<path d="M296.284 155.471C298.4 153.987 300.84 152.959 303.444 152.198C306.047 151.475 308.854 151.246 311.661 151.551C312.353 151.589 313.044 151.741 313.776 151.817C314.468 151.931 315.2 152.084 315.892 152.236C317.275 152.617 318.617 153.225 319.716 154.101C321.953 155.814 323.662 158.135 324.028 160.876L323.621 161.142C320.977 160.038 318.983 158.973 316.909 158.059C315.892 157.602 314.916 157.108 313.98 156.575C313.492 156.308 313.004 156.08 312.475 155.814C311.946 155.623 311.417 155.395 310.848 155.243C309.749 154.938 308.61 154.71 307.43 154.634C306.251 154.481 305.03 154.481 303.851 154.52C301.41 154.596 298.928 155.09 296.528 155.852L296.284 155.471Z" fill="#290708"/>
<path d="M305.315 167.803C305.356 168.45 307.471 170.239 313.532 170.01C316.217 169.896 318.902 169.173 318.821 167.917C318.78 166.699 316.949 164.568 314.59 164.301C310.522 163.806 305.234 166.509 305.315 167.803Z" fill="#E6E6E6"/>
<path d="M309.953 166.166C311.336 162.817 317.682 163.959 316.461 168.45C315.16 173.017 307.715 171.533 309.953 166.166Z" fill="#290708"/>
<path d="M319.472 168.83C318.739 168.183 318.048 167.65 317.356 167.346C316.665 167.042 315.932 166.889 315.2 166.889C313.736 166.813 312.109 167.118 310.441 167.384C308.732 167.689 306.942 167.993 304.99 168.069C304.013 168.107 302.996 168.069 301.979 167.841C301.491 167.727 300.962 167.536 300.515 167.232C300.067 166.927 299.701 166.509 299.539 166.09C299.986 166.28 300.434 166.356 300.84 166.356C301.247 166.318 301.654 166.28 302.061 166.166C302.874 165.976 303.647 165.709 304.502 165.443C306.169 164.91 307.919 164.339 309.79 164.035C311.661 163.73 313.776 163.578 315.892 164.301C316.949 164.644 317.926 165.291 318.577 166.128C319.187 166.927 319.472 167.879 319.472 168.83Z" fill="#290708"/>
<path d="M342.496 170.619C342.537 171.228 344.612 172.903 350.307 172.446C352.829 172.256 353.968 171.114 353.846 169.896C353.724 168.716 353.276 167.041 351.039 166.851C347.215 166.547 342.374 169.401 342.496 170.619Z" fill="#E6E6E6"/>
<path d="M347.052 169.135C348.191 166.052 354.009 166.851 353.073 171C352.097 175.148 345.263 174.083 347.052 169.135Z" fill="#290708"/>
<path d="M355.31 170.353C354.538 170.01 353.887 169.63 353.236 169.401C352.585 169.173 351.975 169.059 351.446 169.021C350.347 168.983 349.29 169.287 347.988 169.744C346.727 170.163 345.303 170.733 343.676 171.038C342.862 171.19 341.927 171.266 341.032 171.076C340.096 170.886 339.242 170.391 338.876 169.668C339.73 169.782 340.381 169.668 340.991 169.439C341.601 169.211 342.13 168.907 342.74 168.564C343.92 167.917 345.222 167.118 346.768 166.585C347.541 166.318 348.395 166.09 349.331 166.052C350.266 165.976 351.283 166.128 352.178 166.471C353.073 166.851 353.805 167.422 354.334 168.107C354.863 168.83 355.188 169.592 355.31 170.353Z" fill="#290708"/>
<path d="M289.816 182.875C289.247 183.788 287.131 187.061 284.446 186.985C281.558 186.909 279.728 186.376 276.595 179.754C273.626 173.474 273.788 167.841 274.155 166.356C274.399 165.405 275.049 162.55 277.572 161.332C280.785 159.734 284.691 161.865 285.423 162.246C291.932 165.938 293.925 176.442 289.816 182.875Z" fill="#F79556"/>
<path d="M246.736 176.1C258.005 170.924 269.598 166.623 279.565 164.035C321.465 153.264 336.72 126.811 336.72 126.811C336.72 126.811 376.342 168.374 364.911 200.953C360.802 212.676 355.677 218.309 355.432 221.088C356.734 221.088 358.036 221.011 359.419 220.859C359.663 220.821 359.907 220.821 360.151 220.783C364.219 215.036 370.199 200.915 370.199 200.915C375.203 187.442 373.21 175.795 369.264 152.502C367.677 143.101 365.602 128.448 354.822 113.566C345.995 101.387 334.238 100.512 329.723 100.93C327.892 101.425 328.055 101.691 327.73 101.577C303.159 92.3666 279.565 99.1794 263.944 132.597C254.14 153.606 233.231 165.862 225.339 180.172C215.698 197.68 215.942 209.365 216.43 211.192C216.593 212.219 222.654 187.176 246.736 176.1Z" fill="#290708"/>
<path d="M216.43 176.823C220.945 176.557 222.817 175.834 222.817 175.834C224.403 175.225 225.136 174.654 226.681 174.616C227.169 174.616 229.448 174.578 230.831 176.176C232.376 177.965 231.604 180.325 231.522 180.591C230.831 182.646 228.837 183.826 226.641 184.778C219.196 187.975 210.491 187.594 205.04 187.061C196.416 186.224 192.185 183.75 190.639 180.553C189.419 178.003 189.663 175.796 192.388 174.045C197.677 170.695 208.05 177.318 216.43 176.823Z" fill="#D66730"/>
<path d="M258.411 309.883L195.277 289.52C193.121 288.835 191.941 286.628 192.714 284.572L221.027 207.804C221.759 205.787 224.119 204.683 226.315 205.406L289.45 225.769C291.606 226.454 292.786 228.661 292.013 230.717L263.7 307.485C262.927 309.502 260.568 310.568 258.411 309.883Z" fill="#FFED00"/>
<path d="M201.867 285.981L194.707 286.476C193.69 273.078 192.917 259.415 192.307 247.349C191.982 241.031 191.656 235.056 191.331 229.918C189.622 202.628 198.124 194.749 202.192 190.981L202.355 190.829C212.321 181.542 224.851 180.857 231.4 181.276C247.794 182.304 268.703 189.954 274.724 192.58C285.626 197.3 291.728 204.036 292.908 212.638C293.966 220.44 291.281 227.291 289.653 231.364C289.491 231.744 289.369 232.125 289.247 232.43L282.494 230.184C282.616 229.841 282.779 229.461 282.941 229.042C284.406 225.312 286.643 219.641 285.789 213.437C284.935 207.195 280.338 202.324 271.714 198.632C264.513 195.511 245.069 188.812 230.912 187.937C225.542 187.594 215.372 188.127 207.399 195.549L207.237 195.701C203.901 198.784 196.985 205.216 198.49 229.499C198.816 234.675 199.141 240.651 199.467 247.007C200.118 259.034 200.85 272.66 201.867 285.981Z" fill="#FFED00"/>
<path d="M261.747 304.402L257.761 298.845C268.704 291.956 279.28 284.687 289.165 277.227C289.776 276.77 290.467 276.237 291.199 275.705C298.4 270.262 310.4 261.127 326.062 251.841C331.065 248.872 337.167 245.522 345.792 243.581C352.748 241.983 360.029 241.602 367.392 242.478L366.538 249.138C360.029 248.377 353.643 248.72 347.5 250.128C339.934 251.841 334.686 254.733 329.926 257.55C314.59 266.608 302.793 275.59 295.715 280.957C294.983 281.49 294.291 282.023 293.681 282.517C283.592 290.053 272.853 297.437 261.747 304.402Z" fill="#FFED00"/>
<path d="M409.699 338.847C409.699 338.847 417.388 346.421 421.862 359.247C422.35 360.656 423.083 363.092 421.903 365.299C421.537 365.984 420.357 367.735 416.411 368.915C412.221 370.171 401.075 371.008 392.939 366.745C383.705 361.912 379.718 353.31 377.033 347.449C373.901 340.788 402.906 332.148 409.699 338.847Z" fill="#DD6326"/>
<path d="M370.24 302.157C364.016 293.441 368.694 278.026 383.624 270.909C387.122 269.234 391.881 266.037 393.468 261.622C393.915 260.328 393.509 259.224 393.875 259.224C394.322 259.262 394.444 262.003 394.485 262.726C394.77 268.435 393.387 273.116 392.817 275.819C390.905 284.763 394.038 296.562 385.332 304.555C379.067 310.302 373.332 306.458 370.24 302.157Z" fill="#346E00"/>
<path d="M356.856 267.179C357.182 267.217 356.449 267.598 356.775 268.625C357.263 270.034 358.524 270.909 359.297 271.67C362.063 274.487 362.673 278.102 362.47 281.794C362.348 284.497 360.111 288.417 358.077 287.047C348.191 280.538 355.026 271.328 355.839 269.729C356.775 267.75 356.409 267.141 356.856 267.179Z" fill="#346E00"/>
<path d="M365.846 316.391C370.484 312.091 364.382 287.922 343.432 276.009C341.276 274.791 337.737 272.431 337.045 272.926C336.72 273.155 338.998 273.535 338.306 275.59C330.74 298.122 356.043 298.122 357.344 312.509C357.711 316.772 363.243 318.789 365.846 316.391Z" fill="#346E00"/>
<path d="M417.55 278.293C416.167 279.511 411.937 279.016 407.95 280.653C404.248 282.175 402.662 285.638 400.994 290.586C398.187 299.112 390.132 312.129 378.905 312.243C360.721 312.395 377.155 293.06 393.427 282.594C400.465 278.064 410.106 277.988 414.459 277.95C417.062 277.912 418.201 277.76 417.55 278.293Z" fill="#7CA417"/>
<path d="M368.735 259.339C370.118 258.73 368.247 263.868 375.203 270.452C390.01 284.535 386.959 312.966 371.46 314.374C365.318 314.945 342.374 291.995 367.107 265.086C369.996 261.927 368.206 259.567 368.735 259.339Z" fill="#7CA417"/>
<path d="M385.251 280.805C385.332 279.815 389.034 290.015 389.481 295.001C390.417 305.811 388.952 311.748 384.437 316.277C379.23 321.53 370.362 323.661 365.074 318.942C360.355 314.717 360.111 307.257 364.179 302.043C367.067 298.313 368.084 298.16 376.057 290.206C381.02 285.258 384.844 285.372 385.251 280.805Z" fill="#9FBC50"/>
<path d="M395.868 314.526C395.746 313.156 394.526 312.129 393.061 312.129H377.196H369.467H353.602C352.137 312.129 350.917 313.156 350.795 314.526L349.046 333.024V335.688C349.046 345.774 357.792 354.871 368.531 354.871H369.426H377.196H378.091C388.871 354.871 397.577 345.774 397.577 335.688V333.024L395.868 314.526Z" fill="#FFED00"/>
<path d="M227.658 185.463C225.38 181.999 223.224 177.812 217.325 173.474C216.023 172.522 215.332 172.103 214.437 171.532C211.955 169.934 206.667 169.363 196.7 168.678C195.358 168.602 193.731 168.145 192.266 168.982C190.721 169.858 191.127 171.076 189.378 172.598C187.629 174.159 186.571 173.55 184.659 175.262C183.52 176.328 182.91 177.432 182.585 178.079C181.69 179.792 181.974 180.363 180.998 182.684C180.307 184.359 180.103 184.131 179.615 185.463C178.883 187.366 179.045 188.431 178.761 190.296C178.354 192.047 164.279 217.7 163.262 219.413C145.607 248.263 134.176 273.459 129.904 303.565C129.579 305.925 128.887 312.737 133.403 315.744C141.132 320.844 150.692 312.928 152.482 311.329C168.103 297.056 170.177 292.375 174.408 277.265C182.625 248.148 186.368 220.44 187.71 215.873C188.483 213.247 189.459 209.898 190.517 207.842C191.087 207.157 191.656 206.624 192.185 206.472C192.592 206.358 193.202 205.673 195.399 206.51C197.351 207.271 200.362 208.984 203.087 207.309C206.179 205.406 204.958 203.123 205.447 202.666C205.935 202.171 206.667 202.78 207.928 202.438C209.392 202.019 210.206 200.687 210.45 200.268C211.06 199.203 211.386 197.718 211.874 197.033C212.891 195.549 214.559 196.805 216.471 195.016C220.01 191.705 216.308 185.767 216.674 185.577C217.325 185.272 222.613 194.217 227.088 194.902C227.495 194.978 228.024 195.13 229.041 194.521C230.139 193.874 230.546 193.417 230.587 192.237C230.668 190.22 229.488 188.241 227.658 185.463Z" fill="#F79556"/>
<path d="M199.182 176.176C200.931 176.024 202.68 176.214 204.389 176.595C206.097 176.975 207.725 177.584 209.27 178.345C210.816 179.107 212.24 180.096 213.542 181.2C214.803 182.342 215.901 183.636 216.715 185.082C215.25 184.169 213.867 183.293 212.484 182.456C211.101 181.619 209.677 180.857 208.253 180.134C206.83 179.411 205.365 178.726 203.86 178.117C202.355 177.47 200.809 176.861 199.182 176.176Z" fill="#D66730"/>
<path d="M194.666 184.207C196.578 184.359 198.45 184.816 200.28 185.387C202.07 185.958 203.86 186.719 205.528 187.594C207.196 188.508 208.823 189.612 210.125 191.02C210.776 191.743 211.345 192.58 211.671 193.494C211.996 194.407 212.118 195.321 212.037 196.234C211.63 195.397 211.264 194.597 210.735 193.95C210.206 193.265 209.596 192.733 208.945 192.162C207.562 191.134 206.016 190.221 204.47 189.383C202.884 188.508 201.257 187.708 199.629 186.871C197.921 185.996 196.294 185.158 194.666 184.207Z" fill="#D66730"/>
<path d="M189.622 193.532C191.249 193.684 192.795 194.065 194.3 194.521C195.805 194.978 197.27 195.549 198.694 196.272C200.118 196.995 201.46 197.795 202.68 198.822C203.291 199.355 203.86 199.926 204.308 200.573C204.755 201.22 205.162 201.943 205.243 202.704C204.185 201.563 202.924 200.839 201.663 200.116C200.362 199.393 199.019 198.746 197.677 198.061C196.334 197.376 194.951 196.691 193.609 195.968C192.266 195.244 190.883 194.483 189.622 193.532Z" fill="#D66730"/>
<path d="M353.521 338.619C355.107 336.83 357.06 337.325 357.141 336.906C357.182 336.64 356.897 336.525 356.612 336.031C356.002 334.965 356.734 332.757 357.711 331.882C358.809 330.892 360.965 330.398 363.121 330.131C363.284 330.093 363.406 329.903 363.324 329.751C363.04 329.104 363.04 328.609 363.04 328.495V328.457C362.999 328.114 362.918 327.163 363.487 326.173C363.731 325.754 363.975 325.183 365.236 324.498C368.45 322.748 377.115 322.938 380.979 322.976C384.315 323.014 392.736 323.851 395.624 324.498C400.384 325.526 401.604 326.401 402.417 327.543C402.417 327.543 402.417 327.581 402.458 327.581C403.679 329.408 403.231 331.996 401.441 333.404C400.994 333.785 400.424 334.128 399.773 334.394C399.611 334.47 399.448 334.508 399.326 334.546C398.675 334.775 398.431 335.65 398.919 336.107C399.407 336.564 399.733 337.058 399.895 337.553C400.424 339.228 400.099 340.75 400.099 340.75C399.814 342.044 399.163 342.996 398.878 343.376C397.983 344.556 397.495 344.328 396.682 345.279C395.583 346.573 396.885 347.297 396.031 349.618C394.77 353.044 391.963 353.424 391.759 354.033C391.231 355.365 392.532 355.403 391.678 357.268C391.109 358.448 389.969 359.21 389.278 359.438C384.396 361.189 374.959 358.677 371.257 357.535C371.257 357.535 362.389 354.452 357.995 350.113C357.385 349.504 356.897 349.009 356.816 348.324C356.694 347.182 357.67 346.65 357.426 345.964C357.1 344.937 355.473 345.394 353.805 343.719C351.568 341.549 353.236 338.961 353.521 338.619Z" fill="#EC7D40"/>
<path d="M358.85 337.02C358.687 337.02 358.646 337.249 358.809 337.325C361.168 338.01 363.528 338.581 365.928 339.075C368.613 339.646 371.298 340.103 373.982 340.522L376.016 340.826L378.05 341.093C378.701 341.169 379.393 341.283 380.044 341.397L382.037 341.702C383.379 341.93 384.722 342.158 386.105 342.349C387.163 342.501 388.261 342.615 389.319 342.767C389.481 342.805 389.563 342.539 389.4 342.501C389.034 342.349 388.668 342.158 388.302 342.044C387.651 341.778 387.04 341.549 386.39 341.321C385.088 340.864 383.827 340.446 382.484 340.027C381.183 339.646 379.8 339.304 378.457 339.037C377.766 338.885 377.115 338.809 376.423 338.695L374.389 338.39C371.664 337.972 368.979 337.667 366.213 337.439C364.829 337.325 363.446 337.249 362.063 337.172C361.372 337.134 360.68 337.134 359.989 337.134C359.663 336.982 359.256 336.982 358.85 337.02Z" fill="#DD6326"/>
<path d="M365.399 329.979C365.236 329.979 365.196 330.245 365.358 330.283C367.433 330.74 369.467 331.121 371.542 331.463C373.901 331.844 376.26 332.186 378.62 332.491L380.41 332.681L382.2 332.871L385.739 333.214C386.918 333.328 388.098 333.48 389.278 333.595C390.173 333.709 391.068 333.785 392.003 333.861C392.166 333.861 392.248 333.633 392.085 333.557C391.8 333.442 391.515 333.328 391.231 333.214C390.661 333.024 390.092 332.795 389.522 332.605C388.383 332.224 387.244 331.92 386.064 331.615C385.779 331.539 385.495 331.501 385.169 331.425C384.885 331.349 384.559 331.311 384.274 331.273C383.664 331.159 383.095 331.083 382.484 330.968C381.874 330.892 381.305 330.778 380.695 330.702L378.905 330.474C376.505 330.207 374.145 329.979 371.704 329.865C370.484 329.827 369.304 329.789 368.084 329.789C367.474 329.789 366.863 329.827 366.253 329.865C366.009 329.941 365.724 329.941 365.399 329.979Z" fill="#DD6326"/>
<path d="M359.338 345.736C359.175 345.736 359.134 345.964 359.297 346.04C359.623 346.155 359.948 346.231 360.273 346.307C360.843 346.459 361.412 346.611 361.982 346.764C363.121 347.068 364.26 347.334 365.358 347.601C367.636 348.134 369.874 348.629 372.152 349.123L373.86 349.466L375.569 349.808C376.138 349.923 376.708 350.037 377.277 350.113L378.132 350.265L378.986 350.417C380.125 350.608 381.305 350.798 382.444 350.95C383.013 351.026 383.623 351.102 384.193 351.179C384.518 351.217 384.885 351.255 385.21 351.293C385.373 351.293 385.454 351.064 385.291 351.026C384.966 350.874 384.681 350.722 384.356 350.608C383.827 350.379 383.298 350.151 382.729 349.923C381.63 349.504 380.532 349.123 379.433 348.743L378.579 348.476L377.725 348.21C377.155 348.058 376.586 347.905 376.057 347.753C375.488 347.601 374.918 347.449 374.349 347.334C373.779 347.182 373.21 347.068 372.64 346.954C370.362 346.459 368.002 346.117 365.643 345.888C364.463 345.774 363.284 345.736 362.104 345.698C361.25 345.66 360.314 345.66 359.338 345.736Z" fill="#DD6326"/>
<path d="M621.477 423.304H15.8387C9.49271 423.304 4.36707 418.508 4.36707 412.571C4.36707 406.633 9.49271 401.837 15.8387 401.837H621.437C627.783 401.837 632.908 406.633 632.908 412.571C632.949 418.47 627.823 423.304 621.477 423.304Z" fill="#282444"/>
<path d="M485.201 328.19C487.397 326.058 488.292 322.975 482.475 314.298C470.8 296.828 444.44 304.82 440.778 314.259C440.005 316.277 442.528 314.107 443.951 315.858C451.518 325.145 479.546 333.708 485.201 328.19Z" fill="#7CA417"/>
<path d="M451.03 130.351C453.267 129.171 451.111 131.531 467.505 133.434C494.435 136.593 515.059 172.446 513.351 199.202C512.985 204.873 511.886 222.305 499.072 230.031C497.486 230.983 491.506 234.941 484.509 233.647C413.849 220.44 435.124 146.488 449.362 135.641C453.186 132.71 448.833 131.492 451.03 130.351Z" fill="#346E00"/>
<path d="M504.117 306.229C494.354 304.745 494.964 283.545 502.774 269.006C502.774 269.006 516.809 240.308 557.041 247.007C559.645 247.425 560.906 246.74 560.58 247.349C558.912 250.508 561.434 253.705 556.716 263.449C553.421 270.338 532.633 310.606 504.117 306.229Z" fill="#7CA417"/>
<path d="M504.279 238.747C510.463 242.211 525.148 228.471 549.881 205.33C549.881 205.33 561.272 194.673 575.713 174.234C581.733 165.709 581.489 162.664 581.489 162.664C578.113 158.173 551.752 167.916 531.779 182.722C522.707 189.421 508.225 200.458 503.506 218.956C502.53 222.648 499.113 235.893 504.279 238.747Z" fill="#7CA417"/>
<path d="M481.58 250.965C476.617 253.781 470.8 246.588 440.534 227.824C424.018 217.586 411.164 210.659 402.906 195.548C398.919 188.241 399.529 185.691 400.424 184.587C403.394 181.009 430.08 182.265 447.735 190.715C455.382 194.369 473.444 203.008 481.214 221.886C485.079 231.325 488.008 247.311 481.58 250.965Z" fill="#7CA417"/>
<path d="M490.692 243.315C488.78 233.571 486.543 223.828 483.94 214.198C481.377 204.569 478.407 195.016 475.071 185.577C471.776 176.138 468.074 166.775 464.088 157.564C460.061 148.353 455.749 139.257 451.111 130.275C456.033 139.105 460.63 148.125 464.901 157.222C469.173 166.356 473.159 175.605 476.78 185.006C480.4 194.407 483.655 203.922 486.543 213.513C489.431 223.143 491.953 232.848 494.232 242.63L490.692 243.315Z" fill="#7CA417"/>
<path d="M492.97 315.211C496.916 308.779 501.025 302.499 505.5 296.371L508.876 291.804L512.415 287.351C512.7 286.97 513.026 286.628 513.31 286.247L514.246 285.143L516.077 282.974C516.687 282.251 517.338 281.528 517.948 280.843L519.86 278.711C525.026 273.116 530.558 267.788 536.498 262.954C542.478 258.12 548.864 253.781 555.617 250.013C548.986 254.01 542.762 258.501 536.986 263.487C531.209 268.473 525.921 273.916 520.999 279.625L519.168 281.794C518.558 282.517 517.948 283.24 517.378 283.964L515.629 286.171L514.775 287.275C514.49 287.655 514.205 287.998 513.921 288.379L510.585 292.908L507.371 297.513C503.181 303.717 499.276 310.073 495.615 316.543L492.97 315.211Z" fill="#346E00"/>
<path d="M489.635 256.027C495.411 248.072 500.862 239.927 506.557 231.858C512.253 223.828 518.151 215.873 524.619 208.337C526.206 206.434 527.874 204.569 529.541 202.742C531.209 200.915 532.918 199.088 534.667 197.299L535.969 195.967L537.311 194.673C538.206 193.798 539.142 192.961 540.037 192.085C541.908 190.41 543.779 188.736 545.691 187.137C549.556 183.94 553.542 180.895 557.651 177.965C561.76 175.072 565.99 172.294 570.343 169.744C566.031 172.408 561.922 175.262 557.854 178.269C553.827 181.276 549.922 184.397 546.179 187.67C538.613 194.178 531.982 201.524 525.758 209.174C519.534 216.825 513.88 224.855 508.429 233C502.937 241.145 497.73 249.442 492.116 257.549L489.635 256.027Z" fill="#346E00"/>
<path d="M488.821 265.732C487.397 261.279 485.363 256.94 483.004 252.754C480.645 248.567 478 244.532 475.153 240.612C469.417 232.772 462.908 225.388 455.871 218.537C448.792 211.686 441.185 205.33 432.927 199.659C424.71 194.026 415.923 189.04 406.526 185.234C416.005 188.812 424.954 193.607 433.375 199.05C441.795 204.531 449.647 210.773 456.928 217.509C464.21 224.246 471.003 231.554 476.983 239.356C479.994 243.276 482.801 247.311 485.323 251.536C487.845 255.76 490.042 260.175 491.709 264.857L488.821 265.732Z" fill="#346E00"/>
<path d="M494.191 334.774C492.93 333.176 491.465 331.691 489.879 330.283C488.292 328.875 486.584 327.543 484.835 326.325C481.295 323.813 477.512 321.605 473.607 319.664C469.661 317.723 465.552 316.048 461.322 314.716C457.091 313.422 452.657 312.509 448.182 312.204C452.698 312.242 457.172 312.927 461.525 314.031C465.878 315.097 470.149 316.581 474.258 318.37C478.366 320.159 482.353 322.214 486.136 324.574C488.048 325.754 489.879 327.048 491.628 328.418C493.377 329.788 495.086 331.311 496.591 333.023L494.191 334.774Z" fill="#346E00"/>
<path d="M413.767 241.983C413.848 238.823 453.837 228.128 482.923 271.061C489.838 281.299 489.065 298.655 485.241 297.208C470.068 291.461 433.985 279.434 417.876 244.837C416.005 240.841 413.726 243.657 413.767 241.983Z" fill="#9FBC50"/>
<path d="M495.208 230.717C495.086 233.457 494.842 236.121 494.638 238.824L493.947 246.816C493.703 249.481 493.459 252.145 493.255 254.809C493.011 257.473 492.726 260.099 492.36 262.764C491.099 276.694 493.052 292.146 493.499 294.811C493.743 296.143 493.947 297.475 494.15 298.807C494.353 300.139 494.516 301.509 494.638 302.841C494.923 305.544 495.167 308.246 495.411 310.948C495.859 316.353 496.184 321.758 496.225 327.124C496.265 332.529 496.143 337.933 495.859 343.338C495.777 344.67 495.696 346.04 495.615 347.372C495.533 348.704 495.411 350.075 495.289 351.407C495.167 352.739 495.004 354.109 494.882 355.441C494.72 356.773 494.557 358.144 494.313 359.476H493.825C493.459 356.773 493.214 354.071 492.93 351.407C492.686 348.704 492.442 346.04 492.238 343.338C491.831 337.971 491.465 332.605 491.18 327.238C490.896 321.872 490.733 316.505 490.611 311.139C490.53 308.436 490.489 305.772 490.367 303.108L490.245 299.112C490.204 297.779 490.163 296.409 490.163 295.077C490.123 292.375 490.123 289.673 490.082 286.97C490.041 284.268 489.919 281.566 489.797 278.863C489.675 276.161 489.472 273.459 489.269 270.756C489.024 268.054 488.78 265.314 488.699 262.611C488.455 257.169 489.147 251.726 490.163 246.36C491.221 240.993 492.645 235.703 494.842 230.641L495.208 230.717Z" fill="#7CA417"/>
<path d="M491.547 309.578C490.408 305.962 488.78 302.423 486.909 298.997C485.038 295.572 482.923 292.223 480.645 288.987C476.129 282.479 470.963 276.351 465.39 270.604C462.583 267.712 459.695 264.933 456.644 262.269C453.593 259.605 450.42 257.055 447.165 254.695C440.575 249.937 433.497 245.713 425.808 242.592C433.578 245.484 440.819 249.519 447.613 254.162C450.989 256.484 454.284 258.92 457.416 261.546C460.549 264.134 463.6 266.874 466.529 269.691C472.346 275.362 477.756 281.413 482.556 287.884C484.957 291.119 487.235 294.468 489.269 297.932C491.303 301.395 493.133 305.011 494.476 308.855L491.547 309.578Z" fill="#7CA417"/>
<path d="M525.107 335.954H462.989C461.2 335.954 459.735 337.324 459.735 338.999V346.535C459.735 348.21 461.2 349.58 462.989 349.58H464.373L467.871 397.27C467.871 399.82 470.068 401.875 472.793 401.875H515.426C518.151 401.875 520.348 399.82 520.348 397.27L523.846 349.58H525.229C527.019 349.58 528.484 348.21 528.484 346.535V338.999C528.402 337.324 526.938 335.954 525.107 335.954Z" fill="#D78E42"/>
<path d="M523.073 358.753L523.765 349.542H464.535L523.073 358.753Z" fill="#3E1A4A"/>
<path d="M66.0781 340.065C66.0781 340.408 63.3932 344.708 64.9797 344.518C68.1527 344.138 68.0307 337.096 72.7495 330.093C75.353 326.249 76.5734 325.754 81.2516 321.263C88.9807 313.879 89.0621 311.444 98.215 297.057C98.215 297.057 102.852 289.939 108.995 285.943C111.639 284.23 112.168 284.763 112.412 284.344C112.494 284.154 112.575 280.652 86.0925 297.894C66.078 310.911 65.7933 330.816 66.0781 340.065Z" fill="#9FBC50"/>
<path d="M65.0204 343.757C67.6645 345.089 72.3834 340.179 81.7804 332.263C81.7804 332.263 90.1197 325.221 100.412 319.17C103.503 317.343 107.856 314.983 112.046 315.973C112.982 316.201 114.894 316.81 115.097 316.467C115.3 316.087 113.266 315.135 113.104 315.135C93.2927 312.395 78.2819 324.993 74.7021 327.847C69.2917 332.11 62.3762 337.515 63.7593 341.93C63.8406 342.349 64.1254 343.3 65.0204 343.757Z" fill="#346E00"/>
<path d="M59.7319 348.553C61.7659 350.38 67.339 347.106 77.9564 342.197C77.9564 342.197 87.3941 337.858 98.2556 334.851C101.51 333.937 106.107 332.872 109.565 334.737C110.337 335.155 111.924 336.183 112.168 335.917C112.453 335.612 110.907 334.28 110.744 334.242C93.6588 327.086 76.736 334.813 72.7087 336.525C66.6475 339.076 58.9997 342.311 58.9997 346.574C59.0811 347.03 59.0811 347.944 59.7319 348.553Z" fill="#7CA417"/>
<path d="M78.6073 314.108C85.4415 299.15 82.6346 298.997 87.3128 292.489C90.1603 288.531 97.5233 279.739 99.3133 275.933C99.9641 274.563 100.9 272.241 101.795 269.577C101.835 269.386 102.039 269.044 101.957 269.006C101.754 268.892 100.9 271.175 98.5403 273.839C93.8622 278.978 88.4925 282.06 83.4889 285.22C74.0105 291.119 68.9662 298.959 66.9729 302.004C64.6949 305.544 56.7217 317.952 61.8066 326.477C62.3354 327.353 64.1254 330.321 66.6882 330.436C67.8272 330.474 71.285 330.093 78.6073 314.108Z" fill="#346E00"/>
<path d="M55.6233 300.025C54.3622 299.835 53.0605 299.074 51.5147 297.056C46.5517 290.51 46.0229 277.798 50.2129 267.407C54.4843 256.788 60.3828 254.314 62.0914 247.007C62.0914 247.007 63.3118 241.716 66.5661 238.291C66.6068 238.253 66.7695 238.101 67.0136 237.872C67.9086 236.997 68.4781 236.426 68.6001 236.502C68.8442 236.616 67.3391 238.405 66.8102 239.813C65.1424 244.152 67.9899 249.176 68.8442 250.927C73.1156 259.491 74.1326 276.39 68.6001 287.998C65.9559 293.517 60.4235 300.748 55.6233 300.025Z" fill="#346E00"/>
<path d="M60.7897 288.188C60.6676 281.109 65.6305 280.5 74.3767 265.086C77.1836 260.138 82.5939 247.311 87.3535 246.893C87.8009 246.855 87.5975 247.425 87.0687 247.54C81.699 248.834 81.6583 264.591 81.6583 264.591C81.6176 281.414 71.2036 299.302 66.2001 299.074C63.4338 298.883 60.871 293.136 60.7897 288.188Z" fill="#346E00"/>
<path d="M53.3453 349.885C50.7011 351.217 45.9823 346.307 36.5853 338.39C36.5853 338.39 28.2459 331.349 17.954 325.297C14.8623 323.47 10.5096 321.111 6.31959 322.1C5.38396 322.329 3.47201 322.938 3.26861 322.595C3.06522 322.215 5.0992 321.263 5.26191 321.263C25.0729 318.523 40.0837 331.121 43.6635 333.975C49.0739 338.238 55.9894 343.643 54.6063 348.058C54.525 348.514 54.2402 349.466 53.3453 349.885Z" fill="#7CA417"/>
<path d="M36.87 320.235C30.0358 305.278 32.8427 305.125 28.1646 298.617C25.317 294.659 17.954 285.867 16.1641 282.061C15.5132 280.69 14.5775 278.369 13.6826 275.705C13.6419 275.514 13.4385 275.172 13.5199 275.134C13.7233 275.019 14.5775 277.303 16.937 279.967C21.6151 285.106 26.9849 288.188 31.9885 291.347C41.4668 297.247 46.5111 305.087 48.5044 308.132C50.7825 311.672 58.7557 324.08 53.6707 332.605C53.1419 333.481 51.352 336.449 48.7892 336.564C47.6501 336.602 44.1924 336.221 36.87 320.235Z" fill="#7CA417"/>
<path d="M47.3246 294.316C47.4467 287.237 42.4838 286.628 33.7377 271.213C30.9308 266.265 25.5204 253.439 20.7609 253.02C20.3134 252.982 20.5168 253.553 21.0456 253.667C26.4153 254.961 26.456 270.718 26.456 270.718C26.4967 287.541 36.9107 305.43 41.9143 305.201C44.6805 305.049 47.2433 299.264 47.3246 294.316Z" fill="#346E00"/>
<path d="M60.2201 324.993C53.508 322.595 51.9622 306.99 56.9251 295.23C59.6506 288.759 63.7999 284.687 66.4441 282.137C75.4343 273.459 86.906 269.272 87.4348 270.033C87.5976 270.262 87.2721 269.577 85.6043 272.393C83.6516 275.666 80.56 289.444 75.7191 305.886C71.9766 318.561 70.146 322.785 65.8339 324.536C64.8169 324.879 62.4982 325.792 60.2201 324.993Z" fill="#7CA417"/>
<path d="M32.9648 254.391C33.3716 254.086 35.3242 255.799 36.0158 256.408C46.7145 265.695 52.369 276.275 52.369 276.275C59.61 289.787 59.8134 299.302 59.6913 302.842C59.5693 306.534 58.593 309.388 56.3963 310.834C53.1826 312.966 49.0739 311.405 45.8602 309.54C36.9514 304.364 33.2902 290.206 34.8767 278.978C35.6903 273.116 36.3412 260.48 34.3479 256.788C34.0632 256.256 32.558 254.695 32.9648 254.391Z" fill="#7CA417"/>
<path d="M66.5255 287.922C65.9966 287.617 64.044 289.863 63.3525 290.662C52.613 302.88 47.8535 315.782 47.8535 315.782C41.7923 332.339 43.094 343.262 43.8262 347.334C44.5585 351.559 46.145 354.68 48.9519 356.05C52.9792 358.029 57.4539 355.632 60.8303 353.044C70.2273 345.85 72.0579 329.065 68.4374 316.391C66.5255 309.769 63.7186 295.42 65.3865 290.853C65.5899 290.244 67.0543 288.226 66.5255 287.922Z" fill="#9FBC50"/>
<path d="M51.5147 352.32C51.5147 352.701 54.4843 357.649 52.6537 357.421C49.0739 356.926 49.318 348.895 44.111 340.826C41.2227 336.373 39.8803 335.802 34.6326 330.626C25.9679 322.062 25.9679 319.284 15.8386 302.727C15.8386 302.727 10.713 294.506 3.83813 289.863C0.868514 287.846 0.217642 288.455 0.0142435 287.998C-0.107795 287.77 -0.107792 283.811 29.6697 303.945C52.1656 319.132 52.0435 341.816 51.5147 352.32Z" fill="#9FBC50"/>
<path d="M84.7906 344.023H30.2799C28.6934 344.023 27.3916 345.241 27.3916 346.726V353.31C27.3916 354.794 28.6934 356.012 30.2799 356.012H31.4596L34.5105 397.879C34.5105 400.087 36.4225 401.914 38.8226 401.914H76.2072C78.5666 401.914 80.5192 400.125 80.5192 397.879L83.5702 356.012H84.7499C86.3364 356.012 87.6382 354.794 87.6382 353.31V346.726C87.6382 345.241 86.3771 344.023 84.7906 344.023Z" fill="#D78E42"/>
<path d="M83.0007 364.043L83.5702 355.937H31.6223L83.0007 364.043Z" fill="#3E1A4A"/>
<path d="M552.647 371.123C551.386 366.137 549.515 359.895 547.725 327.619C547.562 324.46 547.196 318.751 550.939 313.689C551.63 312.738 555.332 307.752 562.289 306.724C563.55 306.534 568.716 305.925 573.109 308.703C578.357 312.014 580.106 318.18 580.188 323.471C580.554 345.888 575.062 364.652 573.109 371.96C571.319 378.506 554.275 377.745 552.647 371.123Z" fill="#9FBC50"/>
<path d="M577.381 338.771C579.781 336.944 582.344 338.695 583.686 336.601C584.988 334.584 584.093 332.263 584.418 329.332C584.703 326.82 585.517 325.45 587.266 324.46C589.015 323.471 594.466 323.318 595.443 329.332C595.687 331.007 595.89 335.612 593.327 340.293C590.968 344.556 584.012 350.379 577.299 347.905C574.004 346.649 574.167 341.207 577.381 338.771Z" fill="#9FBC50"/>
<path d="M551.427 327.962C549.271 326.249 547.644 331.045 543.454 326.972C542.6 326.173 541.339 324.042 542.396 319.17C543.251 315.249 541.827 310.758 536.538 310.872C533.447 310.949 531.453 313.156 530.681 316.011C528.158 325.716 533.121 330.93 533.528 331.463C537.108 336.183 544.593 341.587 549.149 339.266C553.014 337.287 553.99 330.017 551.427 327.962Z" fill="#9FBC50"/>
<path d="M556.756 370.438C555.495 368.268 552.322 320.768 558.465 310.568C559.034 309.617 560.783 307.676 563.387 307.257C566.926 306.724 569.896 309.464 570.75 310.264C575.916 315.021 575.428 322.938 575.184 327.505C573.435 360.77 572.214 369.22 570.262 371.427C567.618 374.51 558.709 373.863 556.756 370.438Z" fill="#7CA417"/>
<path d="M561.678 370.438C561.434 369.562 561.231 359.362 561.678 341.702C561.882 334.47 561.882 324.422 562.288 316.277C562.492 312.357 562.736 307.523 565.828 308.094C569.041 308.703 570.262 329.066 570.262 329.066C570.506 361.265 567.495 370.133 566.723 371.123C565.99 372.226 562.004 371.732 561.678 370.438Z" fill="#346E00"/>
<path d="M549.719 330.816C551.264 331.768 550.817 336.716 547.685 337.591C546.139 338.01 543.983 337.325 542.315 336.183C536.823 332.529 534.789 327.277 534.545 326.591C531.087 316.049 535.725 311.177 537.718 311.443C539.061 311.634 539.752 314.07 540.078 315.135C541.135 318.903 539.833 320.121 540.362 323.737C540.403 324.118 541.095 329.37 544.349 330.321C546.83 331.045 548.132 329.827 549.719 330.816Z" fill="#7CA417"/>
<path d="M540.566 331.92C536.823 328.761 534.586 320.882 536.742 313.537C537.067 312.433 538.694 312.395 538.125 314.564C535.847 322.747 537.799 328.494 542.681 331.577C545.04 333.062 546.179 332.681 547.4 332.377C548.579 332.072 549.393 334.318 547.603 334.66C545.813 334.965 542.64 333.671 540.566 331.92Z" fill="#346E00"/>
<path d="M578.805 339.723C580.92 337.82 582.303 340.522 584.622 338.162C589.3 333.252 585.029 328.837 587.103 326.363C587.185 326.249 588.12 325.069 589.625 324.993C591.293 324.879 592.554 326.135 592.798 326.439C594.751 328.913 593.775 334.737 592.514 337.972C590.602 342.805 585.679 344.975 584.052 345.66C582.181 346.497 579.252 346.992 577.91 345.85C576.527 344.708 576.933 341.397 578.805 339.723Z" fill="#7CA417"/>
<path d="M581.123 341.055C588.69 342.996 591.537 332.072 589.503 327.809C588.934 326.63 590.357 325.83 590.764 327.581C592.229 334.204 589.503 341.968 582.791 343.947C578.764 345.165 579.008 340.522 581.123 341.055Z" fill="#346E00"/>
<path d="M581.205 363.929H545.406C544.349 363.929 543.535 364.728 543.535 365.68V370.019C543.535 371.008 544.389 371.769 545.406 371.769H546.179L548.173 399.249C548.173 400.696 549.434 401.875 550.98 401.875H575.509C577.055 401.875 578.316 400.696 578.316 399.249L580.31 371.769H581.083C582.14 371.769 582.954 370.97 582.954 370.019V365.68C583.076 364.69 582.262 363.929 581.205 363.929Z" fill="#D78E42"/>
<path d="M580.025 377.06L580.432 371.731H546.301L580.025 377.06Z" fill="#3E1A4A"/>
</svg>
