<svg width="552" height="605" viewBox="0 0 552 605" fill="none" xmlns="http://www.w3.org/2000/svg">
<path d="M281.248 498.628C300.809 488.879 323.707 469.992 358.185 447.543C397.125 422.154 486.498 464.687 536.811 350.128C542.097 338.096 545.786 324.973 547.574 312.538C576.279 111.976 345.555 -7.64728 159.013 72.4275C78.681 106.911 -26.7175 178.526 8.56068 345.652C32.9058 461.028 150.06 564.066 281.248 498.628Z" fill="white"/>
<path d="M234.346 317.052L297.119 305.156C297.119 305.156 306.791 298.87 341.709 328.078C363.423 346.213 338.565 361.867 385.718 365.639C454.681 371.151 572.653 446.545 506.676 565.228C470.114 630.995 450.535 547.794 401.871 559.86C392.585 563.148 386.492 565.228 385.718 565.228C381.752 565.228 232.314 469.623 232.314 469.623L234.346 317.052Z" fill="#1E1735"/>
<path d="M55.8428 574.318C64.5963 556.28 74.2202 533.213 83.3606 500.91C92.114 469.864 130.707 473.152 167.607 456.13C204.555 439.108 242.761 429.243 279.322 452.213C323.428 479.874 368.549 484.613 391.231 515.32C394.374 519.624 398.147 527.555 399.017 529.248C403.031 537.227 408.982 560.876 411.545 570.403C398.923 577.801 384.702 568.95 375.223 572.915C270.375 616.873 153.195 613.198 55.8428 574.318Z" fill="#FFBCB0"/>
<path d="M356.216 224.351C355.974 221.788 356.989 219.66 358.585 218.209C357.811 218.644 356.941 218.935 355.974 219.128C352.734 219.708 347.22 218.644 346.06 213.325C345.624 208.586 349.251 206.265 350.896 205.491C352.975 204.475 354.958 204.379 356.554 204.669C354.523 203.798 352.879 202.106 352.347 199.64C351.524 191.661 361.245 188.421 366.323 191.709C367.194 192.289 368.403 193.305 369.08 194.997C369.128 188.759 377.108 184.455 383.056 187.985C387.506 190.645 387.651 196.158 384.362 199.543C384.507 199.446 384.604 199.398 384.749 199.35C386.296 198.624 387.167 198.527 388.279 198.382C388.424 198.382 391.278 198.044 393.986 199.736C400.08 203.653 398.097 212.358 390.746 214.147C389.005 214.582 387.651 214.389 387.07 214.341C386.877 214.341 386.683 214.244 386.49 214.196C386.78 214.341 387.022 214.486 387.312 214.679C393.212 218.596 391.181 227.156 383.975 228.8C382.041 229.235 379.091 229.332 376.044 227.107C375.657 226.865 374.496 225.801 373.868 224.496C373.674 224.061 373.577 223.577 373.481 223.093C373.481 226.575 370.821 230.057 366.323 230.831C364.002 231.073 357.57 230.734 356.216 224.351Z" fill="white"/>
<path d="M372.757 214.292C377.738 213.083 379.14 207.232 374.981 204.717C371.064 202.3 364.874 205.008 365.357 210.134C366.228 214.051 370.193 214.921 372.757 214.292Z" fill="#FFBCB0"/>
<path d="M356.023 219.08C362.359 217.919 365.938 210.375 360.521 206.168C360.473 206.12 356.072 202.88 350.897 205.394C349.301 206.168 345.626 208.489 346.061 213.228C347.27 218.645 352.783 219.66 356.023 219.08Z" fill="#FFD700"/>
<path d="M390.796 214.05C398.147 212.309 400.129 203.557 394.036 199.639C391.328 197.947 388.474 198.285 388.329 198.285C387.217 198.431 386.346 198.527 384.799 199.253C383.783 199.736 383.106 200.607 382.187 201.139C382.139 201.139 379.576 203.218 379.963 207.667C380.446 209.891 381.317 211.584 384.073 213.18C384.509 213.422 384.992 213.373 385.476 213.518C386.056 213.712 386.54 214.099 387.168 214.147C387.7 214.292 389.055 214.486 390.796 214.05Z" fill="#FFD700"/>
<path d="M362.746 205.104C365.986 204.282 368.501 202.009 369.274 199.107C369.565 198.092 369.565 198.092 369.178 196.399C369.081 195.916 369.226 195.432 369.033 194.997C368.356 193.304 367.195 192.289 366.276 191.708C361.15 188.42 351.477 191.66 352.3 199.639C353.412 204.378 358.441 206.119 362.746 205.104Z" fill="#FFD700"/>
<path d="M384.073 228.654C391.279 227.01 393.31 218.451 387.41 214.534C382.235 211.1 374.014 213.808 373.24 220.869C373.627 222.029 373.434 223.238 373.966 224.351C374.594 225.656 375.803 226.72 376.142 226.962C379.14 229.186 382.09 229.138 384.073 228.654Z" fill="#FFD700"/>
<path d="M366.373 230.686C373.434 229.477 376.045 221.547 370.725 217.436C365.357 213.326 355.54 216.904 356.265 224.351C357.571 230.735 364.003 231.073 366.373 230.686Z" fill="#FFD700"/>
<path d="M380.398 201.912C387.314 199.784 388.909 191.418 383.058 187.937C376.722 184.165 368.017 189.339 369.178 196.206C370.145 201.283 375.852 203.314 380.398 201.912Z" fill="#FFD700"/>
<path d="M273.277 19.3589C270.907 20.3744 270.52 26.7094 270.569 28.2568C270.81 33.4795 272.987 39.476 275.792 46.0043C272.358 50.4533 268.779 51.5172 265.249 54.6605C258.236 60.8504 261.525 62.7847 261.815 62.9298C266.264 64.8641 275.405 57.4653 278.597 52.3393C280.193 55.9178 281.837 59.593 283.384 63.4133C283.723 64.2838 284.061 65.251 284.303 66.2181C284.061 66.5566 283.82 66.9435 283.529 67.3304C275.26 77.7274 269.069 77.1955 261.815 81.2092C250.644 87.4474 254.512 90.9776 254.851 91.2194C260.316 95.1848 275.308 87.4474 280.724 81.4994C281.643 80.4838 283.481 78.4528 285.077 75.7447C283.529 98.6666 261.235 128.117 240.681 109.837C235.942 105.63 234.684 112.981 225.447 113.222C217.613 113.416 212.099 105.824 210.262 103.502C200.928 91.703 199.332 72.5047 206.489 57.2718C213.357 42.7643 227.817 32.6574 240.681 29.9494C245.13 28.9822 260.364 29.0306 263.508 25.2102C267.28 20.5678 270.327 18.7302 272.31 17.9565C273.906 17.1828 274.921 18.6335 273.277 19.3589ZM268.537 43.9733C268.392 43.8766 268.102 43.8766 267.28 44.2634C266.603 44.602 262.395 46.7781 262.009 50.9852C261.96 51.7106 261.863 52.4844 262.299 52.7745C263.169 53.3548 265.587 51.7106 267.038 49.7763C268.634 47.5518 269.311 44.4569 268.537 43.9733Z" fill="#346E00"/>
<path d="M404.143 319.857C400.468 319.954 396.019 312.023 395.148 309.944C392.247 303.029 391.376 293.889 390.941 283.685C383.735 280.01 378.463 280.832 371.886 278.946C358.925 275.223 362.02 270.677 362.311 270.338C366.857 265.067 383.348 269.033 390.651 273.723C390.505 268.114 390.409 262.262 390.07 256.411C389.974 255.057 389.78 253.655 389.538 252.252C389.006 251.914 388.474 251.624 387.846 251.285C370.726 242.919 362.939 247.465 351.042 246.691C332.713 245.482 335.518 238.519 335.808 237.987C340.5 229.427 364.729 230.249 375.417 234.65C377.254 235.424 380.833 236.923 384.605 239.437C368.453 210.616 321.203 186.146 305.824 222.609C302.294 230.975 296.055 222.27 283.965 227.638C273.664 232.184 271.246 245.482 270.278 249.641C265.491 270.725 275.26 296.694 293.976 312.023C311.869 326.676 336.872 330.786 355.25 326.386C361.634 324.838 381.413 315.408 387.846 318.455C395.632 322.13 400.71 322.614 403.757 322.469C406.32 322.275 406.755 319.809 404.143 319.857ZM382.768 290.842C382.623 291.084 382.284 291.277 380.978 291.229C379.866 291.229 373.095 290.987 370 285.765C369.468 284.894 368.888 283.927 369.275 283.298C370 281.993 374.208 282.621 377.254 284.266C380.688 286.151 383.493 289.73 382.768 290.842Z" fill="#7CA417"/>
<path d="M180.277 1.8533C178.246 4.12614 180.857 11.1381 181.728 12.8306C184.533 18.3435 189.804 23.7596 196.043 29.4659C194.495 35.9943 191.158 38.8474 188.837 43.9734C184.243 54.1287 188.789 54.5639 189.175 54.5639C194.931 54.5155 201.218 41.9907 202.185 34.9304C205.667 38.0253 209.246 41.1686 212.776 44.5537C213.598 45.3275 214.372 46.1979 215.097 47.1167C215.001 47.6003 214.952 48.1322 214.807 48.7125C210.938 63.9454 203.926 66.4117 198.074 74.2941C189.03 86.4804 194.931 88.4147 195.414 88.5115C203.297 90.1556 215.726 74.4392 218.628 65.3962C219.111 63.8487 220.127 60.8021 220.514 57.0785C230.041 82.6117 220.272 125.409 189.127 115.641C181.97 113.416 184.146 121.975 174.28 126.715C165.913 130.728 156.241 125.215 153.098 123.571C137.283 115.35 126.16 95.33 126.499 75.4063C126.837 56.3532 137.574 38.4122 150.148 29.1758C154.5 25.9841 170.991 18.5853 172.491 12.9274C174.328 6.06048 176.747 2.57867 178.488 0.789412C179.89 -0.806413 181.728 0.257472 180.277 1.8533Z" fill="#7CA417"/>
<path d="M386.346 75.5992C386.153 66.4111 382.187 62.1556 384.944 54.1765C385.959 51.3233 387.604 48.5669 386.733 47.7932C385.573 46.7776 380.93 50.3562 379.527 51.3233C367.872 59.5442 345.142 52.5806 340.403 51.3233C311.579 43.8278 268.392 70.8117 247.355 89.1395C237.634 97.6023 198.848 131.405 202.233 174.444C202.379 176.039 200.396 206.457 221.143 212.647C234.297 216.564 242.325 201.96 256.495 208.004C265.781 211.97 268.827 219.272 277.726 221.448C289.575 224.349 302.197 211.244 305.099 208.053C315.593 196.495 311.869 189.628 323.138 167.867C328.409 157.663 332.858 149.104 341.805 140.254C350.027 132.13 356.362 129.374 360.618 125.118C353.315 126.327 344.707 124.586 335.567 119.992C329.328 116.849 324.347 111.433 325.12 110.756C325.798 110.175 332.471 116.027 342.192 116.752C355.298 117.768 362.214 114.624 366.421 111.965C367.292 103.84 365.019 96.6835 368.066 95.4745C370.532 94.459 372.708 98.9563 376.384 98.376C381.849 97.4088 386.54 85.8995 386.346 75.5992Z" fill="#7CA417"/>
<path d="M249.193 200.364C247.548 210.374 246.726 220.481 246.678 230.588C246.629 235.666 246.823 240.695 247.113 245.772C247.258 248.287 247.452 250.85 247.693 253.365C247.887 255.928 248.08 258.539 248.225 261.102C248.806 271.451 248.757 281.848 248.177 292.196C247.984 295.727 247.693 299.305 247.355 302.835H240.584C241.019 299.16 241.406 295.436 241.745 291.761C242.567 281.654 242.857 271.499 242.519 261.392C242.422 258.877 242.325 256.363 242.18 253.8C242.035 251.237 241.89 248.674 241.793 246.063C241.6 240.888 241.551 235.714 241.697 230.491C241.987 220.142 243.099 209.794 244.985 199.59C246.92 189.387 249.676 179.376 253.352 169.705L254.754 166.078L256.253 162.499C257.269 160.13 258.285 157.76 259.349 155.439C261.476 150.748 263.798 146.106 266.313 141.609C271.342 132.566 277.097 123.958 283.771 116.075C290.397 108.193 297.941 100.988 306.259 94.9427C310.418 91.8962 314.771 89.1397 319.317 86.6735L322.751 84.8842C323.911 84.3039 325.072 83.772 326.233 83.24C328.602 82.1761 330.924 81.1606 333.342 80.2902C342.917 76.6149 352.977 74.197 363.181 72.9397C353.025 74.3904 343.063 77.0502 333.632 80.9672C331.262 81.9344 328.941 82.9982 326.62 84.0621C325.459 84.6424 324.347 85.1744 323.186 85.803L319.849 87.6406C315.4 90.1553 311.192 93.0084 307.13 96.1033C299.053 102.293 291.799 109.547 285.415 117.478C279.032 125.408 273.567 134.016 268.827 143.011C266.458 147.508 264.281 152.102 262.299 156.793C261.283 159.114 260.316 161.484 259.397 163.853L257.994 167.384L256.689 170.962C253.303 180.489 250.837 190.354 249.193 200.364Z" fill="#9FBC50"/>
<path d="M357.62 213.855C356.894 210.277 357.426 209.503 358.732 206.505C361.392 200.17 375.03 199.203 383.638 187.307C389.103 179.763 403.176 184.55 412.945 177.925C419.861 173.186 412.849 169.317 429.388 162.451C454.585 152.053 453.327 136.821 452.409 136.289C450.958 135.467 450.571 139.916 448.491 141.898C438.674 151.183 386.782 124.151 336.002 148.233C313.901 158.727 297.216 175.217 290.059 197.946C284.835 214.581 289.188 224.059 295.475 223.334C302.923 222.512 296.926 226.525 300.505 233.586C315.158 262.939 360.376 227.299 357.62 213.855Z" fill="#346E00"/>
<path d="M246.726 283.927L242.229 283.733C245.953 277.785 249.87 271.934 253.932 266.179C265.055 250.414 277.436 235.423 291.219 221.931C305.051 208.439 320.333 196.398 336.969 186.63C353.606 176.861 371.596 169.366 390.312 164.675C392.633 164.143 395.003 163.563 397.325 163.031L404.385 161.483C409.076 160.419 413.719 159.307 418.362 157.953C422.956 156.599 427.502 155.003 431.855 153.02C436.207 151.038 440.366 148.572 443.994 145.38C440.415 148.62 436.256 151.135 431.952 153.214C427.599 155.293 423.053 156.938 418.459 158.388C413.864 159.791 409.173 161 404.53 162.112L397.518 163.756C395.197 164.336 392.875 164.917 390.554 165.497C372.031 170.478 354.283 178.167 337.936 188.129C321.59 198.09 306.598 210.228 293.154 223.817C279.709 237.406 267.715 252.397 256.931 268.21C253.352 273.336 249.967 278.607 246.726 283.927Z" fill="#7CA417"/>
<path d="M260.799 149.153C252.385 128.359 235.361 113.852 217.758 108.29C213.115 106.84 205.184 104.422 199.235 108.339C189.901 114.432 192.61 131.406 188.886 131.889C184.243 132.518 182.889 107.178 168.477 100.891C157.789 96.2491 142.845 101.037 134.576 109.209C113.538 130.052 118.229 170.334 129.836 195.577C136.607 210.375 156.967 244.516 182.889 250.609C188.064 251.818 206.296 254.961 210.987 266.809C212.003 269.372 211.857 271.016 213.26 271.79C219.257 274.982 239.665 253.946 251.127 232.813C256.302 223.286 276.082 186.873 260.799 149.153ZM244.695 149.153C244.163 149.685 235.265 143.35 217.467 130.632C214.662 128.649 211.761 126.521 212.196 125.361C212.825 123.717 220.224 124.49 225.786 126.715C238.988 131.938 246.726 147.17 244.695 149.153Z" fill="#346E00"/>
<path d="M158.804 152.344C163.689 148.524 170.653 156.552 180.616 152.393C190.239 148.379 199.331 135.274 196.14 125.989C190.723 110.128 193.19 95.3783 188.885 85.8517C181.97 70.4738 164.414 59.3513 120.841 45.7627C116.053 44.2635 111.749 42.9579 107.88 41.7973C110.008 44.8922 112.087 48.3257 113.78 52.1943C114.747 54.3221 118.616 63.2684 117.745 74.5842C117.455 78.5012 116.875 86.1902 112.087 88.3663C111.7 88.5114 110.008 88.9467 108.121 88.0762C104.543 86.432 104.446 80.1454 104.398 69.1197C104.349 51.2271 103.527 44.1185 102.366 40.2498C91.4367 37.2516 84.2308 36.1394 78.0405 37.5901C68.9001 39.7662 56.3261 45.2791 49.6522 40.1531C45.7833 37.1549 47.5726 32.8026 45.88 32.851C42.3979 32.8993 42.3013 52.7746 36.7397 74.9227C28.228 108.967 29.0985 106.307 29.4854 115.447C29.5338 117.043 29.6788 118.59 29.8723 120.089C65.4181 137.595 89.2604 128.891 97.7237 130.825C99.2713 131.163 104.881 132.469 105.075 134.694C105.316 137.934 94.1933 141.222 91.8235 141.947C77.4118 146.203 51.103 148.766 34.7084 138.03C40.5602 151.812 50.3293 163.273 59.3245 173.767C74.4134 191.418 88.2448 207.57 110.54 210.036C124.081 211.535 142.265 206.457 151.212 196.302C164.269 181.456 147.053 161.533 158.804 152.344Z" fill="#9FBC50"/>
<path d="M155.661 296.549C151.889 269.371 139.557 250.028 138.88 245.53C138.831 245.192 138.348 242 139.944 240.985C141.491 240.018 144.344 241.517 145.312 242.484C167.22 264.052 156.145 299.015 161.706 318.358C162.045 317.875 162.432 317.343 162.867 316.811C170.798 306.365 198.364 275.754 194.737 236.052C194.254 230.636 191.352 215.016 180.084 209.165C165.14 201.428 156.725 202.492 138.928 209.89C131.577 212.937 138.638 196.64 132.641 183.052C132.061 181.746 124.903 166.126 108.847 160.178C83.3604 150.7 58.5508 174.25 57.4869 175.266C51.0548 181.552 47.6211 188.129 42.93 197.124C38.9644 204.668 34.2733 213.856 32.5806 226.284C30.888 238.47 34.3217 237.406 32.2421 248.625C30.0658 260.28 25.4715 266.325 28.3248 275.271C28.6634 276.335 29.0502 277.157 29.3404 277.931C34.2733 273.53 40.8021 268.888 48.0563 265.841C51.1999 264.487 59.7599 260.86 62.5648 263.955C63.4837 264.971 63.6288 266.566 63.387 267.775C62.3714 272.224 54.7787 273.868 50.5228 275.029C40.8989 277.64 33.7897 281.751 28.8568 285.039C26.4871 288.666 21.0706 289.875 18.5074 294.856C12.6556 306.172 27.3092 325.322 28.9535 327.45C32.9191 332.527 34.1282 332.14 36.498 336.444C40.6571 343.988 39.8832 350.468 45.5899 354.24C46.8957 355.11 49.6523 356.9 49.1203 355.691C48.4433 354.192 48.3466 344.81 54.8754 339.587C60.7272 334.897 97.0951 348.147 130.465 338.282C132.061 328.658 134.575 312.265 130.61 291.664C129.207 284.459 126.112 271.886 132.061 267.05C133.657 265.744 136.171 264.825 138.348 265.454C145.07 267.388 145.892 282.96 146.182 288.618C147.101 306.172 142.942 323.968 138.493 335.429C145.312 332.527 151.937 328.465 157.982 322.904C158.611 322.324 159.143 321.743 159.675 321.066C158.563 315.844 157.257 308.106 155.661 296.549Z" fill="#7CA417"/>
<path d="M64.4025 289.246C71.8985 273.046 81.0389 257.474 92.2104 243.402C97.772 236.342 103.866 229.668 110.588 223.623C117.31 217.579 124.613 212.114 132.738 207.81C136.8 205.682 141.056 203.845 145.505 202.539C149.954 201.234 154.645 200.411 159.433 200.46C160.642 200.46 161.851 200.557 163.012 200.702C164.221 200.847 165.43 201.04 166.542 201.282C168.815 201.765 171.088 202.346 173.361 203.119C177.811 204.619 182.115 206.746 185.984 209.406C193.818 214.725 200.009 222.173 204.603 230.249C209.246 238.324 212.438 247.077 214.759 255.878C217.129 264.728 218.628 273.723 219.643 282.766C220.079 286.634 220.417 290.503 220.659 294.42H211.954C211.809 290.793 211.615 287.215 211.277 283.588C210.551 274.883 209.342 266.227 207.36 257.764C205.377 249.35 202.572 241.081 198.558 233.585C194.544 226.09 189.272 218.401 182.453 213.517C179.068 211.05 175.296 209.986 171.33 208.487C169.347 207.762 167.316 207.133 165.285 206.65C164.221 206.408 163.254 206.214 162.238 206.069C161.223 205.924 160.207 205.828 159.191 205.779C155.081 205.586 150.825 206.166 146.714 207.278C142.603 208.342 138.589 209.938 134.672 211.872C126.886 215.693 119.68 220.77 112.958 226.477C106.284 232.183 100.093 238.566 94.4351 245.336C83.0701 258.877 73.5428 274.013 65.6599 289.923C57.7286 305.833 51.3932 322.565 46.4603 339.683C51.0063 322.371 56.9064 305.446 64.4025 289.246Z" fill="#9FBC50"/>
<path d="M58.8892 57.9488C61.7909 61.5756 64.8861 65.1058 68.0296 68.5392C74.3649 75.4061 80.9421 81.9345 87.7127 88.3661C101.206 101.181 115.231 113.512 129.352 125.65C136.413 131.695 143.57 137.692 150.68 143.688L161.416 152.683C163.205 154.182 164.995 155.681 166.784 157.228C167.655 158.002 168.573 158.824 169.444 159.646C170.314 160.517 171.137 161.339 171.959 162.258C173.603 164.047 175.102 165.981 176.408 168.012C177.762 170.043 178.971 172.123 180.035 174.299C182.211 178.603 183.807 183.148 185.258 187.646C185.984 189.919 186.661 192.143 187.241 194.464C187.87 196.834 188.305 199.203 188.74 201.525C189.514 206.215 190.094 210.858 190.626 215.5C191.69 224.785 192.609 234.07 193.721 243.306C194.834 252.543 196.091 261.731 197.639 270.822C200.395 287.071 204.023 303.125 209.149 318.697H201.314C196.768 303.319 193.576 287.602 191.207 271.838C189.804 262.553 188.74 253.22 187.821 243.935C186.902 234.65 186.129 225.317 185.258 216.081C184.823 211.438 184.339 206.844 183.662 202.347C183.324 200.074 182.937 197.849 182.405 195.722C181.873 193.546 181.244 191.273 180.615 189.097C179.31 184.696 177.859 180.392 175.924 176.33C175.006 174.299 173.893 172.316 172.733 170.43C171.572 168.544 170.218 166.755 168.767 165.062C168.041 164.192 167.268 163.418 166.494 162.596C165.672 161.822 164.898 161 164.076 160.227C162.383 158.679 160.642 157.132 158.901 155.584L148.407 146.348C141.394 140.206 134.43 134.016 127.466 127.73C113.586 115.253 99.8999 102.535 86.6972 89.3333C80.12 82.7082 73.6395 75.9864 67.4493 68.9745C64.4025 65.4443 61.404 61.8658 58.5507 58.1422C55.7457 54.4186 53.0374 50.5499 50.9579 46.3911C53.2309 50.5499 56.0359 54.2735 58.8892 57.9488Z" fill="#7CA417"/>
<path d="M172.298 477.892C163.592 463.917 179.213 456.47 167.703 427.213C163.931 417.638 154.404 405.548 142.41 397.327C133.415 391.186 128.434 392.685 126.306 388.139C119.245 373.003 152.131 338.282 156.193 335.284C174.667 321.647 202.233 311.781 222.835 309.944C226.124 309.654 260.074 306.994 268.827 323.726C274.002 333.688 266.506 344.423 257.317 367.394C249.579 386.785 252.53 408.933 261.912 429.437C267.135 440.85 278.935 450.135 286.866 459.516C294.266 468.269 288.752 484.082 262.057 491.578C232.701 499.847 187.386 502.12 172.298 477.892Z" fill="#F2A878"/>
<path d="M95.5477 311.589C96.1281 310.525 97.5306 308.494 97.5306 305.689C97.5306 302.546 95.7896 298.338 95.5477 297.855C91.3403 288.86 94.8223 264.197 104.204 240.744H290.735C294.217 247.804 296.732 255.686 297.603 264.488C298.086 269.42 301.085 289.005 289.768 305.689C252.481 360.624 211.181 291.568 198.22 295.872C193.142 297.565 192.223 312.024 190.385 340.99C189.176 360.285 190.24 365.121 186.468 374.358C180.181 389.784 165.527 398.198 160.304 401.825C160.304 401.825 140.476 415.656 119.1 413.576C114.554 413.141 111.507 411.835 109.282 409.659C106.187 406.564 106.042 402.454 105.365 399.843C100.481 381.225 96.515 375.325 93.6133 358.641C93.2747 356.61 92.6461 353.757 91.6305 352.742C88.8738 349.985 84.9565 350.179 81.813 348.825C74.9457 345.875 80.8941 336.638 81.813 335.091C84.7631 330.207 88.6804 324.307 95.5477 311.589Z" fill="#FFB383"/>
<path d="M343.643 353.225C339.774 396.457 266.699 403.372 265.104 346.89C263.556 290.359 349.882 283.83 343.643 353.225Z" fill="#1E1735"/>
<path d="M112.426 240.743C112.571 241.082 112.668 241.469 112.813 241.807C115.424 248.577 119.583 254.622 124.323 260.135C133.898 271.258 145.892 279.769 158.079 288.57C164.125 293.067 170.121 297.806 175.586 303.222C180.954 308.735 185.887 314.78 189.563 321.55C191.497 324.887 193.093 328.369 194.544 331.947C195.898 335.526 197.156 339.153 198.074 342.828C199.961 350.178 201.17 357.674 201.556 365.169C198.123 350.565 193.432 336.3 185.5 324.065C181.535 317.972 176.892 312.362 171.572 307.381C166.301 302.352 160.497 297.855 154.452 293.454C148.504 288.957 142.362 284.604 136.558 279.624C130.803 274.643 125.338 269.226 120.696 263.085C116.005 256.992 112.087 250.173 110.008 242.678C109.814 242.001 109.669 241.372 109.524 240.695H112.426V240.743Z" fill="#1E1735"/>
<path d="M285.947 321.211C287.592 318.841 289.381 316.665 291.025 314.441C292.718 312.216 294.266 309.943 295.668 307.525C301.23 297.999 304.035 287.118 304.615 276.238C305.147 265.309 303.745 254.186 300.021 244.079C299.634 242.967 299.199 241.855 298.763 240.791H305.002C305.147 241.226 305.34 241.71 305.486 242.193C309.209 253.364 310.515 265.067 309.403 276.624C308.871 282.379 307.759 288.134 305.872 293.647C303.986 299.111 301.472 304.43 298.231 309.218C294.991 314.005 290.929 318.116 287.35 322.323C285.561 324.451 283.965 326.724 282.756 329.238C281.498 331.705 280.676 334.413 280.047 337.169C280.386 334.364 280.918 331.559 281.933 328.9C282.852 326.095 284.303 323.58 285.947 321.211Z" fill="#1E1735"/>
<path d="M297.989 240.744C299.44 244.516 300.698 248.481 301.52 252.737C302.39 256.992 307.275 281.22 295.62 303.755C287.737 318.939 278.5 321.502 275.985 337.073C274.776 344.762 275.646 352.693 270.085 362.558C267.86 366.524 265.829 369.957 262.25 372.375C244.598 384.126 224.238 369.038 211.229 352.742C201.895 341.039 202.572 340.362 201.411 335.091C199.332 325.758 201.024 329.094 199.428 324.5C193.141 305.834 164.124 292.39 134.72 268.405C123.162 258.975 116.875 250.174 113.151 240.937C113.103 240.889 113.103 240.792 113.054 240.744H297.989Z" fill="#1E1735"/>
<path d="M367.534 234.166C364.245 235.568 357.329 229.959 355.782 228.411C350.655 223.188 346.593 215.209 342.579 206.07C334.696 205.296 330.198 207.956 323.573 208.633C310.467 209.938 311.676 204.667 311.821 204.232C314.046 197.8 330.44 195.527 338.758 197.123C336.63 192.046 334.406 186.823 332.036 181.6C331.456 180.391 330.779 179.182 330.053 178.022C329.473 177.925 328.844 177.828 328.167 177.78C309.596 176.281 304.18 183.196 293.105 186.775C276.033 192.287 276.082 184.937 276.178 184.308C277.339 174.878 299.634 166.899 310.95 167.093C312.885 167.141 316.705 167.189 321.01 168.157C296.007 147.798 244.356 142.478 243.438 181.117C243.244 189.966 234.442 184.308 225.399 193.545C217.709 201.379 220.224 214.29 220.853 218.449C224.045 239.34 242.228 259.36 264.765 266.566C286.238 273.433 310.467 268.21 325.556 257.668C330.827 253.993 345.384 238.325 352.3 238.808C360.666 239.34 365.502 237.986 368.211 236.729C370.387 235.568 369.903 233.15 367.534 234.166ZM337.694 215.499C337.646 215.79 337.404 216.08 336.195 216.515C335.18 216.902 328.941 219.126 324.25 215.499C323.428 214.871 322.606 214.242 322.702 213.517C322.896 212.066 326.958 211.147 330.295 211.534C334.164 211.969 337.936 214.194 337.694 215.499Z" fill="#9FBC50"/>
<path d="M180.422 300.32C217.225 333.301 188.74 386.398 238.311 411.835C268.15 427.116 248.419 450.957 294.798 466.867C417.443 508.842 330.875 388.671 313.997 371.02C287.93 343.649 151.115 274.062 180.422 300.32Z" fill="#1E1735"/>
<path d="M178.198 308.783C180.277 304.431 182.792 300.901 186.903 299.16C187.676 298.822 191.787 297.081 196.043 298.725C201.363 300.756 203.587 306.559 204.361 309.606C209.633 330.545 200.492 345.826 191.352 353.66C190.288 354.579 183.517 359.318 178.246 353.225C169.879 343.456 171.911 321.985 178.198 308.783Z" fill="#EB9E6C"/>
<path d="M136.799 183.1C136.412 179.087 138.008 175.75 140.571 173.38C139.314 174.057 137.959 174.541 136.46 174.783C131.382 175.702 122.677 174.057 120.839 165.643C120.114 158.196 125.917 154.521 128.432 153.312C131.721 151.716 134.816 151.619 137.331 152.054C134.139 150.652 131.576 148.041 130.754 144.124C129.496 131.55 144.73 126.473 152.758 131.647C154.161 132.518 155.998 134.162 157.062 136.821C157.111 127.053 169.733 120.235 179.067 125.796C186.079 130.003 186.273 138.659 181.146 143.978C181.34 143.833 181.533 143.737 181.775 143.64C184.193 142.528 185.596 142.334 187.337 142.093C187.53 142.044 192.076 141.512 196.284 144.22C205.859 150.362 202.764 164.096 191.157 166.852C188.449 167.481 186.321 167.239 185.402 167.142C185.112 167.094 184.822 166.997 184.532 166.9C184.967 167.142 185.402 167.384 185.837 167.626C195.123 173.767 191.979 187.259 180.614 189.822C177.568 190.499 172.877 190.644 168.089 187.162C167.508 186.727 165.671 185.083 164.655 183.004C164.317 182.278 164.171 181.553 164.075 180.779C164.075 186.244 159.867 191.708 152.806 192.965C149.034 193.691 138.927 193.159 136.799 183.1Z" fill="white"/>
<path d="M162.867 167.287C170.75 165.401 172.878 156.213 166.397 152.2C160.255 148.379 150.438 152.683 151.26 160.711C152.566 166.852 158.853 168.255 162.867 167.287Z" fill="#FFBCB0"/>
<path d="M136.51 174.831C146.472 172.993 152.131 161.145 143.619 154.52C143.571 154.472 136.606 149.346 128.482 153.311C125.967 154.569 120.212 158.196 120.889 165.643C122.727 174.105 131.432 175.75 136.51 174.831Z" fill="#AE9AE3"/>
<path d="M191.207 166.901C202.814 164.144 205.909 150.362 196.333 144.269C192.126 141.561 187.58 142.093 187.386 142.141C185.645 142.383 184.243 142.528 181.825 143.689C180.277 144.414 179.165 145.817 177.714 146.687C177.666 146.735 173.555 149.927 174.232 156.939C175.006 160.421 176.36 163.129 180.664 165.644C181.341 166.03 182.163 165.982 182.84 166.224C183.759 166.514 184.533 167.094 185.5 167.239C186.322 167.288 188.45 167.578 191.207 166.901Z" fill="#AE9AE3"/>
<path d="M147.101 152.78C152.228 151.522 156.193 147.895 157.402 143.301C157.837 141.706 157.837 141.706 157.257 139.046C157.112 138.32 157.354 137.547 157.064 136.821C156 134.162 154.162 132.566 152.76 131.647C144.732 126.473 129.449 131.55 130.755 144.123C132.399 151.667 140.331 154.424 147.101 152.78Z" fill="#AE9AE3"/>
<path d="M180.616 189.919C191.981 187.356 195.124 173.816 185.839 167.723C177.714 162.355 164.801 166.562 163.544 177.636C164.124 179.425 163.883 181.408 164.705 183.149C165.672 185.228 167.558 186.873 168.138 187.308C172.878 190.693 177.569 190.596 180.616 189.919Z" fill="#AE9AE3"/>
<path d="M152.759 193.063C163.883 191.128 167.993 178.652 159.578 172.22C151.163 165.74 135.639 171.35 136.8 183.101C138.928 193.159 149.036 193.691 152.759 193.063Z" fill="#AE9AE3"/>
<path d="M174.861 147.799C185.742 144.462 188.305 131.26 179.068 125.796C169.106 119.848 155.419 128.02 157.209 138.804C158.756 146.832 167.752 149.975 174.861 147.799Z" fill="#AE9AE3"/>
<path d="M165.672 252.784C165.285 248.529 166.929 245.047 169.638 242.581C168.332 243.258 166.881 243.79 165.333 244.08C160.014 245.047 150.825 243.306 148.89 234.457C148.117 226.623 154.21 222.754 156.87 221.448C160.304 219.756 163.592 219.659 166.252 220.094C162.867 218.643 160.207 215.839 159.288 211.728C157.934 198.478 174.038 193.159 182.453 198.623C183.904 199.542 185.887 201.283 186.999 204.088C187.048 193.787 200.299 186.63 210.165 192.482C217.564 196.882 217.757 206.022 212.341 211.632C212.534 211.486 212.776 211.39 213.018 211.293C215.581 210.084 217.032 209.939 218.87 209.697C219.063 209.649 223.851 209.117 228.3 211.922C238.408 218.353 235.119 232.861 222.932 235.762C220.079 236.439 217.806 236.149 216.887 236.052C216.548 236.004 216.258 235.907 215.968 235.811C216.452 236.052 216.887 236.294 217.322 236.584C227.091 243.016 223.754 257.233 211.809 259.941C208.569 260.667 203.684 260.812 198.655 257.185C198.026 256.75 196.091 255.009 195.027 252.833C194.689 252.107 194.495 251.285 194.399 250.512C194.399 256.266 189.949 262.021 182.502 263.327C178.536 263.955 167.897 263.423 165.672 252.784Z" fill="white"/>
<path d="M193.045 236.149C201.314 234.167 203.587 224.495 196.768 220.239C190.288 216.226 179.987 220.723 180.809 229.186C182.211 235.714 188.837 237.213 193.045 236.149Z" fill="#FFD700"/>
<path d="M165.285 244.08C175.731 242.145 181.68 229.717 172.733 222.705C172.684 222.657 165.333 217.241 156.822 221.448C154.162 222.754 148.116 226.622 148.842 234.456C150.825 243.306 159.965 245.095 165.285 244.08Z" fill="#D5C7F4"/>
<path d="M222.884 235.763C235.071 232.861 238.36 218.402 228.252 211.922C223.803 209.069 219.015 209.649 218.821 209.698C216.984 209.939 215.533 210.133 212.97 211.293C211.325 212.067 210.165 213.566 208.617 214.437C208.569 214.485 204.265 217.822 204.942 225.221C205.764 228.896 207.166 231.701 211.712 234.36C212.438 234.796 213.26 234.699 214.034 234.941C215.001 235.231 215.823 235.859 216.839 236.005C217.757 236.198 219.982 236.44 222.884 235.763Z" fill="#D5C7F4"/>
<path d="M176.457 220.916C181.873 219.61 185.984 215.79 187.29 210.954C187.725 209.31 187.725 209.31 187.144 206.457C186.999 205.683 187.241 204.861 186.903 204.087C185.79 201.282 183.807 199.59 182.357 198.623C173.893 193.158 157.837 198.526 159.191 211.728C160.981 219.707 169.347 222.657 176.457 220.916Z" fill="#D5C7F4"/>
<path d="M211.76 259.942C223.706 257.234 227.043 243.017 217.274 236.585C208.714 230.927 195.124 235.376 193.77 247.03C194.399 248.916 194.108 250.996 194.979 252.834C196.043 255.01 197.977 256.751 198.606 257.186C203.636 260.813 208.52 260.716 211.76 259.942Z" fill="#D5C7F4"/>
<path d="M182.453 263.278C194.157 261.247 198.461 248.142 189.659 241.323C180.809 234.505 164.511 240.404 165.672 252.784C167.896 263.423 178.536 263.955 182.453 263.278Z" fill="#D5C7F4"/>
<path d="M205.667 215.645C217.129 212.115 219.788 198.284 210.116 192.481C199.622 186.243 185.258 194.803 187.144 206.167C188.74 214.629 198.219 217.966 205.667 215.645Z" fill="#D5C7F4"/>
<path d="M219.692 152.876C219.353 156.31 220.707 159.163 222.884 161.145C221.82 160.565 220.659 160.178 219.402 159.937C215.097 159.163 207.65 160.565 206.102 167.722C205.473 174.057 210.406 177.2 212.583 178.264C215.388 179.618 217.999 179.715 220.175 179.377C217.467 180.586 215.291 182.81 214.565 186.147C213.501 196.882 226.511 201.186 233.33 196.786C234.49 196.012 236.086 194.658 237.005 192.385C237.054 200.751 247.79 206.554 255.77 201.815C261.766 198.236 261.912 190.837 257.511 186.292C257.704 186.389 257.849 186.485 258.043 186.582C260.122 187.549 261.283 187.694 262.782 187.888C262.927 187.888 266.844 188.371 270.423 186.05C278.596 180.827 275.985 169.076 266.071 166.755C263.749 166.223 261.912 166.417 261.138 166.513C260.896 166.562 260.606 166.61 260.364 166.707C260.751 166.513 261.089 166.32 261.476 166.078C269.408 160.855 266.699 149.346 257.027 147.122C254.415 146.541 250.45 146.445 246.339 149.394C245.855 149.733 244.259 151.135 243.389 152.925C243.099 153.553 242.954 154.182 242.857 154.811C242.857 150.12 239.278 145.477 233.233 144.413C230.09 143.833 221.481 144.317 219.692 152.876Z" fill="white"/>
<path d="M241.89 166.366C248.612 168.01 250.45 175.796 244.889 179.23C239.617 182.518 231.299 178.843 231.976 171.976C233.088 166.753 238.457 165.544 241.89 166.366Z" fill="#FFD700"/>
<path d="M219.402 159.936C227.865 161.484 232.701 171.591 225.447 177.249C225.399 177.297 219.45 181.698 212.535 178.264C210.407 177.2 205.474 174.057 206.054 167.722C207.65 160.565 215.049 159.163 219.402 159.936Z" fill="#FFBCB0"/>
<path d="M266.071 166.706C275.985 169.075 278.597 180.778 270.423 186.001C266.796 188.322 262.927 187.839 262.782 187.839C261.283 187.645 260.122 187.5 258.043 186.533C256.689 185.904 255.77 184.695 254.512 183.97C254.464 183.97 250.982 181.213 251.514 175.217C252.191 172.219 253.303 169.946 257.027 167.818C257.608 167.48 258.285 167.528 258.913 167.335C259.687 167.093 260.364 166.561 261.186 166.464C261.912 166.367 263.75 166.174 266.071 166.706Z" fill="#FFBCB0"/>
<path d="M228.446 178.747C232.798 179.811 236.183 182.906 237.247 186.823C237.586 188.177 237.586 188.177 237.151 190.45C237.006 191.078 237.199 191.755 236.957 192.336C236.038 194.608 234.442 195.962 233.282 196.736C226.414 201.185 213.405 196.833 214.517 186.097C215.872 179.714 222.691 177.345 228.446 178.747Z" fill="#FFBCB0"/>
<path d="M257.027 147.073C266.7 149.297 269.408 160.807 261.477 166.029C254.512 170.623 243.534 166.997 242.422 157.567C242.906 156.019 242.712 154.375 243.389 152.876C244.211 151.087 245.807 149.684 246.339 149.346C250.45 146.396 254.416 146.493 257.027 147.073Z" fill="#FFBCB0"/>
<path d="M233.282 144.413C242.761 146.057 246.243 156.696 239.085 162.209C231.928 167.721 218.677 162.934 219.644 152.924C221.482 144.316 230.09 143.832 233.282 144.413Z" fill="#FFBCB0"/>
<path d="M252.094 183.004C261.38 185.857 263.556 197.076 255.673 201.767C247.161 206.844 235.506 199.881 237.054 190.693C238.408 183.826 246.049 181.118 252.094 183.004Z" fill="#FFBCB0"/>
<path d="M374.111 106.985C373.917 108.919 374.691 110.515 375.9 111.628C375.32 111.289 374.643 111.096 373.966 110.951C371.548 110.515 367.389 111.289 366.518 115.303C366.18 118.881 368.936 120.622 370.145 121.203C371.693 121.976 373.192 122.025 374.401 121.831C372.854 122.508 371.644 123.765 371.258 125.603C370.629 131.6 377.931 134.017 381.8 131.551C382.477 131.116 383.348 130.342 383.832 129.085C383.832 133.776 389.877 137.016 394.326 134.356C397.663 132.373 397.76 128.214 395.293 125.651C395.39 125.7 395.487 125.748 395.583 125.797C396.744 126.328 397.421 126.425 398.243 126.522C398.34 126.522 400.516 126.812 402.548 125.506C407.142 122.557 405.643 116.028 400.129 114.674C398.824 114.384 397.808 114.481 397.373 114.529C397.228 114.529 397.083 114.577 396.938 114.626C397.131 114.529 397.373 114.384 397.566 114.287C402.016 111.337 400.468 104.906 395.052 103.697C393.601 103.358 391.376 103.31 389.055 104.954C388.764 105.148 387.894 105.921 387.41 106.937C387.265 107.275 387.169 107.614 387.12 108.001C387.12 105.389 385.089 102.778 381.752 102.198C379.963 101.908 375.127 102.149 374.111 106.985Z" fill="white"/>
<path d="M386.54 114.529C390.312 115.447 391.328 119.8 388.233 121.734C385.283 123.572 380.64 121.492 380.978 117.672C381.607 114.722 384.605 114.045 386.54 114.529Z" fill="#FFD700"/>
<path d="M373.918 110.901C378.657 111.772 381.365 117.43 377.303 120.573C377.255 120.621 373.966 123.039 370.097 121.153C368.888 120.573 366.131 118.832 366.47 115.253C367.34 111.288 371.499 110.466 373.918 110.901Z" fill="#FFBCB0"/>
<path d="M400.081 114.723C405.643 116.028 407.094 122.605 402.499 125.555C400.468 126.861 398.292 126.571 398.195 126.571C397.373 126.474 396.696 126.377 395.535 125.845C394.81 125.507 394.278 124.83 393.553 124.443C393.553 124.443 391.57 122.895 391.908 119.559C392.295 117.866 392.924 116.609 395.003 115.4C395.342 115.206 395.729 115.255 396.067 115.11C396.503 114.965 396.89 114.674 397.325 114.626C397.76 114.529 398.776 114.384 400.081 114.723Z" fill="#FFBCB0"/>
<path d="M378.995 121.444C381.462 122.024 383.348 123.765 383.928 125.941C384.122 126.715 384.122 126.715 383.88 127.972C383.832 128.311 383.928 128.698 383.783 129.036C383.3 130.293 382.381 131.067 381.752 131.502C377.932 133.969 370.629 131.551 371.209 125.554C371.983 121.976 375.755 120.67 378.995 121.444Z" fill="#FFBCB0"/>
<path d="M395.003 103.746C400.42 105.003 401.919 111.435 397.518 114.336C393.649 116.899 387.459 114.868 386.879 109.597C387.169 108.727 387.024 107.808 387.411 106.986C387.894 105.97 388.765 105.196 389.055 105.003C391.328 103.359 393.553 103.407 395.003 103.746Z" fill="#FFBCB0"/>
<path d="M381.704 102.197C387.024 103.116 388.958 109.064 384.944 112.159C380.93 115.254 373.531 112.546 374.063 106.937C375.127 102.149 379.963 101.907 381.704 102.197Z" fill="#FFBCB0"/>
<path d="M392.247 123.814C397.47 125.41 398.679 131.696 394.278 134.308C389.539 137.161 382.961 133.244 383.832 128.118C384.557 124.297 388.861 122.798 392.247 123.814Z" fill="#FFBCB0"/>
<path d="M210.648 130.873C211.035 128.794 212.293 127.391 213.889 126.617C213.163 126.763 212.438 126.811 211.664 126.763C209.004 126.521 204.942 124.441 205.232 119.992C205.957 116.22 209.343 115.205 210.745 114.963C212.583 114.625 214.13 115.011 215.34 115.592C213.937 114.431 213.067 112.787 213.212 110.708C214.372 104.276 222.642 103.937 225.882 107.661C226.463 108.29 227.14 109.353 227.285 110.853C228.687 106.017 235.942 104.421 239.762 108.531C242.664 111.626 241.503 115.93 238.215 117.865C238.311 117.816 238.456 117.816 238.553 117.768C239.907 117.574 240.633 117.671 241.552 117.816C241.648 117.816 243.97 118.203 245.711 120.137C249.58 124.538 246.098 130.921 239.956 130.631C238.505 130.583 237.489 130.148 237.054 129.954C236.909 129.906 236.764 129.809 236.667 129.712C236.861 129.906 237.054 130.051 237.199 130.244C240.923 134.597 237.441 140.835 231.444 140.496C229.848 140.4 227.527 139.819 225.592 137.401C225.35 137.111 224.673 136.047 224.48 134.838C224.432 134.451 224.432 134.065 224.48 133.629C223.706 136.337 220.853 138.465 217.177 138.078C215.194 137.837 210.262 136.144 210.648 130.873Z" fill="white"/>
<path d="M225.786 126.715C229.945 126.908 232.314 122.653 229.703 119.751C227.188 116.995 221.723 117.72 220.998 121.83C220.756 125.07 223.658 126.618 225.786 126.715Z" fill="#FFD700"/>
<path d="M157.209 75.4549C157.209 73.182 156.145 71.3928 154.549 70.2322C155.274 70.5223 156.096 70.7157 156.918 70.8125C159.82 71.0543 164.608 69.6035 165.14 64.816C165.091 60.6089 161.658 58.868 160.207 58.336C158.272 57.6106 156.531 57.7557 155.177 58.1426C156.87 57.1754 158.176 55.5796 158.418 53.3068C158.418 46.1981 149.567 44.2154 145.36 47.6005C144.634 48.1808 143.667 49.1963 143.232 50.7438C142.652 45.2793 135.204 42.1844 130.271 45.8112C126.596 48.5676 126.982 53.4035 130.174 56.1115C130.078 56.0632 129.933 56.0148 129.787 55.9665C128.385 55.4829 127.563 55.4345 126.596 55.4345C126.499 55.4345 123.936 55.3862 121.711 57.1271C116.681 61.0924 119.196 68.6363 125.87 69.5068C127.418 69.7002 128.627 69.4584 129.11 69.3134C129.304 69.265 129.449 69.2166 129.594 69.1199C129.352 69.265 129.11 69.4101 128.917 69.6035C124.081 73.5689 126.596 80.9193 133.124 81.7414C134.865 81.9349 137.477 81.7414 139.992 79.5653C140.282 79.3235 141.249 78.2596 141.684 77.0507C141.829 76.6155 141.878 76.2286 141.878 75.7934C142.168 78.8399 144.876 81.6931 148.89 81.9832C150.97 82.1283 156.58 81.2579 157.209 75.4549Z" fill="white"/>
<path d="M141.733 68.1034C137.235 67.4747 135.494 62.4938 138.879 59.8341C142.12 57.3195 147.826 59.2054 147.826 63.7511C147.488 67.2813 144.054 68.4419 141.733 68.1034Z" fill="#FFBCB0"/>
<path d="M156.918 70.8122C151.26 70.377 147.391 64.0421 151.792 59.8349C151.84 59.7865 155.419 56.5465 160.207 58.2874C161.706 58.8194 165.14 60.5603 165.14 64.7674C164.608 69.6516 159.82 71.054 156.918 70.8122Z" fill="#FFD700"/>
<path d="M125.822 69.5058C119.148 68.6353 116.633 61.0914 121.663 57.126C123.887 55.3851 126.451 55.4335 126.547 55.4335C127.563 55.4818 128.337 55.4818 129.739 55.9654C130.658 56.3039 131.335 57.0293 132.206 57.4162C132.254 57.4162 134.72 59.012 134.72 62.9774C134.479 64.9601 133.898 66.5559 131.625 68.2001C131.287 68.4419 130.803 68.4902 130.416 68.6353C129.933 68.8287 129.497 69.2156 128.965 69.3607C128.578 69.4574 127.418 69.6992 125.822 69.5058Z" fill="#FFD700"/>
<path d="M149.712 59.1087C146.762 58.6735 144.344 56.8842 143.425 54.418C143.087 53.5475 143.087 53.5475 143.232 52.0001C143.28 51.5648 143.087 51.178 143.232 50.7427C143.667 49.1953 144.634 48.1797 145.36 47.5994C149.567 44.2144 158.418 46.197 158.418 53.3057C157.886 57.6096 153.581 59.6407 149.712 59.1087Z" fill="#FFD700"/>
<path d="M133.076 81.7882C126.596 80.9661 124.032 73.6156 128.869 69.6503C133.124 66.1685 140.572 67.8126 141.926 73.9541C141.684 74.9697 141.975 76.0819 141.588 77.0974C141.152 78.3064 140.185 79.3703 139.895 79.6121C137.429 81.7882 134.817 81.9816 133.076 81.7882Z" fill="#FFD700"/>
<path d="M148.842 81.9828C142.507 81.5475 139.508 74.7774 143.812 70.6669C148.165 66.5565 157.16 68.8293 157.208 75.4544C156.58 81.2574 150.97 82.1278 148.842 81.9828Z" fill="#FFD700"/>
<path d="M133.898 57.8998C127.611 56.6425 125.435 49.4371 130.271 45.8103C135.494 41.9416 143.619 45.7135 143.232 51.8551C142.845 56.4007 138.009 58.6736 133.898 57.8998Z" fill="#FFD700"/>
<path d="M236.28 280.977C236.522 282.283 239.714 283.25 240.536 283.395C243.244 283.879 246.533 283.444 250.208 282.767C252.094 285.04 252.239 286.974 253.4 289.198C255.77 293.502 257.124 292.051 257.221 291.906C258.72 289.875 255.963 284.314 253.739 282.09C255.77 281.703 257.849 281.268 259.977 280.881C260.461 280.784 260.993 280.736 261.525 280.736C261.67 280.881 261.863 281.074 262.009 281.268C266.361 286.684 265.394 289.827 266.603 293.986C268.489 300.417 270.762 298.87 270.907 298.725C273.567 296.355 271.342 287.796 268.924 284.362C268.489 283.782 267.667 282.622 266.458 281.461C278.016 284.894 290.542 299.74 278.79 308.155C276.082 310.089 279.709 311.588 278.742 316.327C277.92 320.341 273.422 322.275 272.019 322.952C264.91 326.338 254.851 324.983 247.887 319.519C241.213 314.345 237.731 305.737 237.828 298.87C237.876 296.452 239.617 288.666 238.021 286.635C236.087 284.169 235.506 282.38 235.313 281.268C235.265 280.397 236.135 280.01 236.28 280.977ZM248.371 286.248C248.274 286.345 248.274 286.442 248.371 286.926C248.467 287.312 249.096 289.73 251.176 290.407C251.514 290.504 251.901 290.649 252.094 290.456C252.481 290.069 251.949 288.666 251.127 287.699C250.208 286.587 248.709 285.91 248.371 286.248Z" fill="#7CA417"/>
<path d="M269.166 325.999C268.924 323.727 269.843 321.841 271.294 320.535C270.568 320.922 269.795 321.164 268.972 321.357C266.119 321.889 261.186 320.922 260.171 316.183C259.784 311.975 263.024 309.896 264.426 309.219C266.264 308.3 268.005 308.252 269.456 308.494C267.667 307.72 266.216 306.221 265.732 303.996C265.007 296.888 273.615 294.035 278.161 296.984C278.935 297.468 279.999 298.387 280.579 299.886C280.628 294.373 287.737 290.504 293.008 293.648C296.974 296.017 297.071 300.901 294.169 303.9C294.266 303.851 294.411 303.755 294.507 303.706C295.862 303.078 296.684 302.981 297.651 302.836C297.748 302.836 300.311 302.497 302.729 304.045C308.145 307.478 306.404 315.264 299.827 316.811C298.28 317.198 297.071 317.053 296.587 316.956C296.394 316.956 296.248 316.86 296.103 316.811C296.345 316.956 296.587 317.053 296.829 317.247C302.052 320.728 300.262 328.321 293.879 329.771C292.138 330.158 289.526 330.207 286.818 328.272C286.479 328.03 285.464 327.112 284.883 325.951C284.69 325.564 284.593 325.129 284.545 324.694C284.545 327.789 282.175 330.884 278.161 331.561C276.082 331.947 270.375 331.657 269.166 325.999Z" fill="white"/>
<path d="M283.868 317.052C288.317 315.988 289.526 310.814 285.851 308.541C282.369 306.365 276.855 308.783 277.291 313.329C278.064 316.81 281.595 317.633 283.868 317.052Z" fill="#FFD700"/>
<path d="M268.973 321.308C274.582 320.293 277.774 313.619 272.987 309.847C272.938 309.799 269.021 306.898 264.475 309.17C263.072 309.847 259.784 311.927 260.219 316.134C261.186 320.922 266.119 321.84 268.973 321.308Z" fill="#AE9AE3"/>
<path d="M299.827 316.859C306.356 315.312 308.097 307.526 302.729 304.093C300.359 302.594 297.796 302.884 297.651 302.884C296.684 303.029 295.862 303.126 294.507 303.754C293.637 304.189 293.008 304.963 292.186 305.447C292.186 305.447 289.865 307.284 290.203 311.25C290.639 313.233 291.412 314.732 293.83 316.134C294.217 316.376 294.653 316.327 295.088 316.473C295.62 316.618 296.055 316.956 296.587 317.053C297.071 317.053 298.28 317.198 299.827 316.859Z" fill="#AE9AE3"/>
<path d="M274.969 308.881C277.871 308.156 280.096 306.125 280.773 303.562C281.014 302.691 281.014 302.691 280.724 301.144C280.628 300.709 280.773 300.273 280.628 299.886C280.047 298.387 278.983 297.469 278.209 296.985C273.663 294.035 265.055 296.937 265.781 303.997C266.651 308.252 271.149 309.8 274.969 308.881Z" fill="#AE9AE3"/>
<path d="M293.879 329.819C300.263 328.368 302.052 320.728 296.829 317.294C292.234 314.248 284.932 316.666 284.255 322.904C284.593 323.919 284.448 325.032 284.884 325.999C285.464 327.159 286.479 328.127 286.818 328.32C289.526 330.254 292.138 330.206 293.879 329.819Z" fill="#AE9AE3"/>
<path d="M278.161 331.609C284.448 330.545 286.77 323.485 282.03 319.858C277.291 316.183 268.537 319.375 269.166 326C270.375 331.658 276.082 331.948 278.161 331.609Z" fill="#AE9AE3"/>
<path d="M290.638 306.075C296.78 304.189 298.231 296.742 293.008 293.647C287.398 290.311 279.66 294.905 280.676 300.998C281.546 305.543 286.624 307.284 290.638 306.075Z" fill="#AE9AE3"/>
</svg>
