<svg width="167" height="35" viewBox="0 0 167 35" fill="none" xmlns="http://www.w3.org/2000/svg">
<path d="M55.6281 28.0007V4.49764H60.5972V14.195H70.6847V4.49764H75.6424V28.0007H70.6847V18.2919H60.5972V28.0007H55.6281ZM87.612 28.345C85.8294 28.345 84.2878 27.9663 82.9871 27.2089C81.6942 26.4438 80.6958 25.3804 79.9919 24.0185C79.288 22.649 78.9361 21.0615 78.9361 19.2559C78.9361 17.435 79.288 15.8437 79.9919 14.4819C80.6958 13.1124 81.6942 12.0489 82.9871 11.2915C84.2878 10.5264 85.8294 10.1439 87.612 10.1439C89.3947 10.1439 90.9325 10.5264 92.2254 11.2915C93.5261 12.0489 94.5283 13.1124 95.2322 14.4819C95.936 15.8437 96.288 17.435 96.288 19.2559C96.288 21.0615 95.936 22.649 95.2322 24.0185C94.5283 25.3804 93.5261 26.4438 92.2254 27.2089C90.9325 27.9663 89.3947 28.345 87.612 28.345ZM87.635 24.5579C88.446 24.5579 89.123 24.3284 89.6663 23.8693C90.2095 23.4026 90.6188 22.7676 90.8942 21.9643C91.1773 21.161 91.3188 20.2467 91.3188 19.2215C91.3188 18.1963 91.1773 17.282 90.8942 16.4787C90.6188 15.6754 90.2095 15.0404 89.6663 14.5737C89.123 14.107 88.446 13.8736 87.635 13.8736C86.8163 13.8736 86.1278 14.107 85.5693 14.5737C85.0184 15.0404 84.6015 15.6754 84.3184 16.4787C84.043 17.282 83.9052 18.1963 83.9052 19.2215C83.9052 20.2467 84.043 21.161 84.3184 21.9643C84.6015 22.7676 85.0184 23.4026 85.5693 23.8693C86.1278 24.3284 86.8163 24.5579 87.635 24.5579ZM99.5587 28.0007V4.49764H104.447V13.3342H104.597C104.811 12.8599 105.121 12.3779 105.526 11.8883C105.939 11.391 106.475 10.9778 107.133 10.6488C107.799 10.3122 108.625 10.1439 109.612 10.1439C110.897 10.1439 112.083 10.4805 113.169 11.1538C114.256 11.8194 115.124 12.8255 115.774 14.172C116.425 15.5109 116.75 17.1902 116.75 19.21C116.75 21.1763 116.432 22.8365 115.797 24.1907C115.17 25.5372 114.313 26.5586 113.227 27.2548C112.148 27.9434 110.939 28.2876 109.6 28.2876C108.652 28.2876 107.844 28.1308 107.179 27.8171C106.521 27.5034 105.981 27.1094 105.561 26.6351C105.14 26.1531 104.819 25.6673 104.597 25.1776H104.379V28.0007H99.5587ZM104.344 19.1871C104.344 20.2352 104.49 21.1495 104.78 21.9299C105.071 22.7102 105.492 23.3185 106.043 23.7546C106.594 24.183 107.263 24.3972 108.051 24.3972C108.847 24.3972 109.52 24.1792 110.071 23.7431C110.622 23.2993 111.039 22.6873 111.322 21.9069C111.612 21.1189 111.758 20.2123 111.758 19.1871C111.758 18.1695 111.616 17.2744 111.333 16.5017C111.05 15.7289 110.633 15.1245 110.082 14.6884C109.531 14.2523 108.854 14.0343 108.051 14.0343C107.255 14.0343 106.582 14.2447 106.031 14.6655C105.488 15.0863 105.071 15.683 104.78 16.4558C104.49 17.2285 104.344 18.1389 104.344 19.1871ZM120.104 28.0007V4.49764H124.993V13.3342H125.142C125.356 12.8599 125.666 12.3779 126.071 11.8883C126.485 11.391 127.02 10.9778 127.678 10.6488C128.344 10.3122 129.17 10.1439 130.157 10.1439C131.442 10.1439 132.628 10.4805 133.714 11.1538C134.801 11.8194 135.669 12.8255 136.32 14.172C136.97 15.5109 137.295 17.1902 137.295 19.21C137.295 21.1763 136.978 22.8365 136.343 24.1907C135.715 25.5372 134.858 26.5586 133.772 27.2548C132.693 27.9434 131.484 28.2876 130.145 28.2876C129.197 28.2876 128.39 28.1308 127.724 27.8171C127.066 27.5034 126.527 27.1094 126.106 26.6351C125.685 26.1531 125.364 25.6673 125.142 25.1776H124.924V28.0007H120.104ZM124.889 19.1871C124.889 20.2352 125.035 21.1495 125.325 21.9299C125.616 22.7102 126.037 23.3185 126.588 23.7546C127.139 24.183 127.808 24.3972 128.596 24.3972C129.392 24.3972 130.065 24.1792 130.616 23.7431C131.167 23.2993 131.584 22.6873 131.867 21.9069C132.158 21.1189 132.303 20.2123 132.303 19.1871C132.303 18.1695 132.161 17.2744 131.878 16.5017C131.595 15.7289 131.178 15.1245 130.627 14.6884C130.077 14.2523 129.399 14.0343 128.596 14.0343C127.8 14.0343 127.127 14.2447 126.576 14.6655C126.033 15.0863 125.616 15.683 125.325 16.4558C125.035 17.2285 124.889 18.1389 124.889 19.1871ZM143.007 34.611C142.388 34.611 141.806 34.5612 141.263 34.4618C140.727 34.37 140.284 34.2514 139.932 34.106L141.033 30.4566C141.607 30.6326 142.124 30.7282 142.583 30.7435C143.049 30.7588 143.451 30.6517 143.788 30.4222C144.132 30.1927 144.411 29.8025 144.625 29.2516L144.912 28.5057L138.589 10.3734H143.73L147.38 23.3185H147.563L151.247 10.3734H156.423L149.572 29.9058C149.243 30.8545 148.795 31.6807 148.229 32.3846C147.67 33.0961 146.963 33.6432 146.106 34.0257C145.249 34.4159 144.216 34.611 143.007 34.611Z" fill="#374A3D"/>
<g clip-path="url(#clip0_2_505)">
<path d="M21.0262 7.59025C18.812 9.93836 17.662 12.8623 17.7564 15.9432L17.7822 16.691L16.1515 16.3545L14.9586 15.2702C15.0015 13.4979 15.3963 11.763 16.143 10.1029C17.559 6.93218 19.6273 5.27205 21.0348 4.04565L21.5926 6.01986L21.0262 7.59025Z" fill="#0CA941"/>
<path d="M16.8811 8.67456C16.6236 9.11577 16.3747 9.59436 16.143 10.1103C15.4993 11.5536 15.1131 13.0492 14.993 14.5822C16.2202 14.7991 17.1814 15.1132 17.7564 15.33C17.8079 13.2362 18.4344 11.2246 19.5759 9.4448C18.5632 8.9662 17.5934 8.75682 16.8811 8.67456Z" fill="url(#paint0_linear_2_505)"/>
<path d="M10.3587 23.6978C13.8688 24.1988 17.3789 23.5482 20.2968 21.9853L21.0263 21.5964L21.5841 23.1967L21.0263 24.4381C18.4688 25.657 15.6024 26.3001 12.693 26.3001C10.1269 26.3001 8.43625 25.8365 6.83997 25.4626L8.48774 24.1465L10.3587 23.6978Z" fill="#0CA941"/>
<path d="M13.3538 23.8474C14.0318 24.67 14.375 25.5375 14.5553 26.2105C16.8124 25.9936 19.0094 25.3954 21.0262 24.4307L21.0606 24.3485C20.846 23.3688 20.4341 22.5986 20.0822 22.0901C18.0482 23.1445 15.7396 23.7502 13.3538 23.8474Z" fill="url(#paint1_linear_2_505)"/>
<path d="M31.6938 23.6976C30.4666 20.856 28.1322 18.5228 25.0255 17.0496L24.2703 16.6907L25.6434 15.5166L27.0938 15.2773C28.836 16.1971 30.3636 17.3637 31.6338 18.7546C34.0711 21.4093 34.689 23.7948 35.2039 25.4699L33.5133 25.111L31.6938 23.6976Z" fill="#0CA941"/>
<path d="M25.9095 17.4984C27.9005 18.5977 29.5226 20.0783 30.6812 21.8207C31.6252 21.2674 32.286 20.6168 32.7323 20.0709C32.4148 19.6371 32.0543 19.1959 31.6424 18.7473C30.5267 17.5283 29.2136 16.4889 27.7375 15.6289C27.0767 16.459 26.4073 17.0871 25.9095 17.4984Z" fill="url(#paint2_linear_2_505)"/>
<path d="M13.3441 34.3096C10.7093 34.3096 8.0746 32.8963 6.15219 31.2885C-4.51544 21.9933 -0.756452 6.25946 13.1123 1.36134C26.8953 -3.51435 42.0514 5.30975 42.0514 18.3365C42.0514 27.5794 34.276 34.3096 28.7061 34.3096C24.2177 34.3096 21.5658 30.2864 22.5527 26.2333C24.3035 18.9946 29.3755 19.1067 31.9931 12.8626C26.7837 11.9428 23.9344 13.2813 21.0337 14.8293C18.1329 13.2813 15.3008 11.9428 10.0742 12.8626C12.6832 19.0993 17.7639 19.0095 19.5146 26.2333C20.4844 30.2939 17.8325 34.3096 13.3441 34.3096ZM8.11751 29.5536C14.4769 34.6237 17.6351 30.3163 16.7683 26.7418C15.1377 19.9966 9.6623 20.5949 6.92459 12.3242L6.52981 11.1277C10.5634 10.1854 15.1463 9.10859 21.0251 11.9876C23.6169 10.7239 26.0972 10.1256 28.792 10.1256C31.4868 10.1256 33.6838 10.6939 35.5204 11.1277L35.1256 12.3242C32.3879 20.5949 26.9125 19.9966 25.2818 26.7418C24.415 30.3089 27.5561 34.6386 33.9327 29.5536C41.0215 23.3617 41.013 13.2963 33.9155 7.11195C26.7923 0.905177 15.2579 0.905177 8.13467 7.11195C1.03722 13.2963 1.02864 23.3543 8.11751 29.5536Z" fill="#0CA941"/>
<path d="M25.1458 27.7734C25.1544 27.4294 25.2059 27.078 25.2831 26.734C25.798 24.5952 26.6992 23.1969 27.7805 22.0153C26.579 21.8284 25.5921 21.5367 24.8969 21.2825C23.9185 22.5089 23.0775 24.0269 22.5454 26.2255C22.4853 26.4648 22.4424 26.7115 22.4081 26.9508C23.4551 27.4668 24.4421 27.6837 25.1458 27.7734Z" fill="url(#paint3_linear_2_505)"/>
<path d="M9.33728 17.0423C10.8563 19.0539 12.5642 20.2429 13.9974 21.731C14.7097 20.9533 15.422 20.37 15.9541 19.9737C14.4694 18.508 12.8302 17.319 11.4571 15.3896C10.4873 15.9131 9.79214 16.5338 9.33728 17.0423Z" fill="url(#paint4_linear_2_505)"/>
<path d="M28.7845 12.5555C28.6815 11.6282 28.3726 10.7607 28.098 10.1326C25.7636 10.2223 23.5666 10.7757 21.2923 11.8525C21.8244 12.8695 21.996 13.7146 22.0304 14.2978C23.9528 13.3332 25.9782 12.5555 28.7845 12.5555Z" fill="url(#paint5_linear_2_505)"/>
<path d="M6.83997 25.4624C7.31199 23.9219 7.92132 21.4541 10.4101 18.7471C11.6889 17.3562 13.2079 16.1896 14.9501 15.2698L17.7737 16.6906L17.0184 17.0496C13.9031 18.5227 11.5773 20.8484 10.3501 23.6975L6.83997 25.4624Z" fill="#0CA941"/>
<path d="M35.2126 25.4627L33.8652 25.7768C29.4797 26.8013 24.914 26.2853 21.0262 24.4308V21.5891L21.7557 21.978C24.6737 23.5409 28.1838 24.184 31.6939 23.6904L35.2126 25.4627Z" fill="#0CA941"/>
<path d="M24.2703 16.6909L24.2961 15.9431C24.3905 12.8621 23.2319 9.9382 21.0262 7.59009V4.05298L22.0132 4.91295C25.3002 7.77705 26.9994 11.5161 27.0938 15.27L24.2703 16.6909Z" fill="#0CA941"/>
</g>
<defs>
<linearGradient id="paint0_linear_2_505" x1="17.9308" y1="9.1822" x2="16.7828" y2="14.7487" gradientUnits="userSpaceOnUse">
<stop stop-color="#0CA941"/>
<stop offset="0.5" stop-color="#088733"/>
<stop offset="1" stop-color="#0CA941"/>
</linearGradient>
<linearGradient id="paint1_linear_2_505" x1="14.3224" y1="25.1366" x2="20.1578" y2="22.7389" gradientUnits="userSpaceOnUse">
<stop stop-color="#0CA941"/>
<stop offset="0.5" stop-color="#088733"/>
<stop offset="1" stop-color="#0CA941"/>
</linearGradient>
<linearGradient id="paint2_linear_2_505" x1="26.9876" y1="16.7295" x2="31.0735" y2="21.1954" gradientUnits="userSpaceOnUse">
<stop stop-color="#0CA941"/>
<stop offset="0.5" stop-color="#088733"/>
<stop offset="1" stop-color="#0CA941"/>
</linearGradient>
<linearGradient id="paint3_linear_2_505" x1="26.0182" y1="21.7592" x2="24.3616" y2="27.3295" gradientUnits="userSpaceOnUse">
<stop stop-color="#0CA941"/>
<stop offset="0.5" stop-color="#067E2F"/>
<stop offset="1" stop-color="#0CA941"/>
</linearGradient>
<linearGradient id="paint4_linear_2_505" x1="10.3005" y1="16.3295" x2="14.2936" y2="21.1647" gradientUnits="userSpaceOnUse">
<stop stop-color="#0CA941"/>
<stop offset="0.5" stop-color="#088733"/>
<stop offset="1" stop-color="#0CA941"/>
</linearGradient>
<linearGradient id="paint5_linear_2_505" x1="21.9354" y1="12.8176" x2="28.1288" y2="10.7688" gradientUnits="userSpaceOnUse">
<stop stop-color="#0CA941"/>
<stop offset="0.5" stop-color="#088733"/>
<stop offset="1" stop-color="#0CA941"/>
</linearGradient>
<clipPath id="clip0_2_505">
<rect width="42.0526" height="34.3093" fill="white"/>
</clipPath>
</defs>
</svg>
